<?xml version="1.0" encoding="utf-8"?>
<svg width="1500px" height="557px" viewBox="0 0 1500 557" version="1.1" xmlns:xlink="http://www.w3.org/1999/xlink" xmlns="http://www.w3.org/2000/svg">
  <g id="Group-60" transform="translate(4.5 4.5)">
    <path d="M153 82.24C153 27.34 84.5 0 0 0" transform="translate(332.25342 197.73889)" id="Shape-13" fill="none" fill-rule="evenodd" stroke="#F9B7AD" stroke-width="9" />
    <path d="M10.66 29.28L21.3101 0L10.66 12.12L0 0L10.66 29.28L10.66 29.28Z" transform="translate(474.59326 267.859)" id="Polygon" fill="#F9B7AD" fill-rule="evenodd" stroke="none" />
    <path d="M223.49 82.24C223.49 27.34 123.43 0 0 0" transform="translate(1016.4834 197.73889)" id="Shape-14" fill="none" fill-rule="evenodd" stroke="#FFDB00" stroke-width="9" />
    <path d="M10.6501 29.28L21.3101 0L10.6501 12.12L0 0L10.6501 29.28L10.6501 29.28Z" transform="translate(1229.3132 267.859)" id="Polygon-2" fill="#FFDB00" fill-rule="evenodd" stroke="none" />
    <path d="M0 82.24C0 27.34 68.5 0 153 0" transform="translate(574.9033 197.73889)" id="Shape-15" fill="none" fill-rule="evenodd" stroke="#F9B7AD" stroke-width="9" />
    <path d="M10.65 29.28L0 0L10.65 12.12L21.3099 0L10.65 29.28L10.65 29.28Z" transform="translate(564.2534 267.859)" id="Polygon-3" fill="#F9B7AD" fill-rule="evenodd" stroke="none" />
    <path d="M2.44507 190.466C-14.8849 115.136 64.6851 46.6557 90.775 33.7657C107.915 24.5857 127.935 17.5257 144.285 12.4357C168.085 5.04565 182.165 1.00568 202.285 0.135681C226.525 -0.914307 248.595 4.28568 266.935 10.3557C294.445 20.2457 310.035 29.3557 321.425 48.7657C333.155 68.7057 336.495 93.2057 338.225 118.496C339.595 138.496 340.765 158.956 338.605 178.126C336.895 193.396 330.925 210.486 324.975 226.746C318.585 244.226 311.905 260.836 300.865 275.926C291.345 288.926 273.775 305.216 267.125 308.926C265.285 309.926 248.635 320.856 233.765 323.926C221.065 326.926 198.765 323.496 174.335 316.266C151.535 309.546 98.4351 284.006 94.8851 281.836C72.1151 267.936 53.4951 256.636 38.8851 245.146C18.6552 229.276 8.03516 214.376 2.52515 190.406" transform="translate(695.3782 78.58313)" id="Shape-16" fill="#DCF2FD" fill-rule="evenodd" stroke="none" />
    <g fill="#152972" stroke="none" id="Б" transform="matrix(0.73051995 -0.68289137 0.68289137 0.73051995 679.9387 97.25256)">
      <path d="M3.99503 48.6818L3.99503 12.3182L26.669 12.3182L26.669 17.0412L9.48153 17.0412L9.48153 26.9844L17.6136 26.9844Q23.6683 26.9844 26.9975 29.8785Q30.3267 32.7727 30.3267 37.6555Q30.3267 40.9048 28.8352 43.3906Q27.3438 45.8764 24.5028 47.2791Q21.6619 48.6818 17.6136 48.6818L3.99503 48.6818ZM9.48153 44.0653L17.6136 44.0653Q19.9574 44.0653 21.582 43.1509Q23.2067 42.2365 24.0501 40.7539Q24.8935 39.2713 24.8935 37.5845Q24.8935 35.1165 23.0114 33.3587Q21.1293 31.6009 17.6136 31.6008L9.48153 31.6008L9.48153 44.0653Z" />
    </g>
    <g fill="#152972" stroke="none" id="і" transform="matrix(0.7948384 -0.6068211 0.6068211 0.7948384 709.97217 70.10657)">
      <path d="M3.56889 48.6818L3.56889 21.4091L8.87784 21.4091L8.87784 48.6818L3.56889 48.6818ZM6.25 17.201Q4.86506 17.201 3.87962 16.2688Q2.89418 15.3366 2.89418 14.0405Q2.89418 12.7266 3.87962 11.7944Q4.86506 10.8622 6.25 10.8622Q7.61719 10.8622 8.61151 11.7944Q9.60582 12.7266 9.60582 14.0405Q9.60582 15.3366 8.61151 16.2688Q7.61719 17.201 6.25 17.201Z" />
    </g>
    <g fill="#152972" stroke="none" id="ф" transform="matrix(0.89 -0.46 0.46 0.89 728.0132 55.498657)">
      <path d="M15.3054 57.968L15.3054 49.2322Q11.4524 49.2322 8.53161 47.4656Q5.6108 45.6989 3.97727 42.5383Q2.34375 39.3778 2.34375 35.1697Q2.34375 30.9261 3.97727 27.7567Q5.6108 24.5874 8.53161 22.8207Q11.4524 21.054 15.3054 21.054L15.3054 12.3182L20.6143 12.3182L20.6143 21.054Q24.4673 21.054 27.3793 22.8207Q30.2912 24.5874 31.9247 27.7567Q33.5582 30.9261 33.5582 35.1697Q33.5582 39.3778 31.9247 42.5383Q30.2912 45.6989 27.3793 47.4656Q24.4673 49.2322 20.6143 49.2322L20.6143 57.968L15.3054 57.968ZM15.3054 44.7578L15.3054 25.5284Q12.7663 25.5284 11.0795 26.8601Q9.39275 28.1918 8.55824 30.3846Q7.72372 32.5774 7.72372 35.1697Q7.72372 37.7443 8.55824 39.9283Q9.39275 42.1122 11.0795 43.435Q12.7663 44.7578 15.3054 44.7578ZM20.6143 44.7578Q23.1712 44.7578 24.8491 43.435Q26.527 42.1122 27.3526 39.9283Q28.1783 37.7443 28.1783 35.1697Q28.1783 32.5774 27.3526 30.3846Q26.527 28.1918 24.8491 26.8601Q23.1712 25.5284 20.6143 25.5284L20.6143 44.7578Z" />
    </g>
    <g fill="#152972" stroke="none" id="і" transform="matrix(0.93 -0.37 0.37 0.93 772.3833 33.87854)">
      <path d="M3.56889 48.6818L3.56889 21.4091L8.87784 21.4091L8.87784 48.6818L3.56889 48.6818ZM6.25 17.201Q4.86506 17.201 3.87962 16.2688Q2.89418 15.3366 2.89418 14.0405Q2.89418 12.7266 3.87962 11.7944Q4.86506 10.8622 6.25 10.8622Q7.61719 10.8622 8.61151 11.7944Q9.60582 12.7266 9.60582 14.0405Q9.60582 15.3366 8.61151 16.2688Q7.61719 17.201 6.25 17.201Z" />
    </g>
    <g fill="#152972" stroke="none" id="д" transform="matrix(0.94608533 -0.32391742 0.32391742 0.94608533 787.91724 27.624146)">
      <path d="M0.90554 56.5476L0.90554 44.0831L3.125 44.0831Q4.81179 42.5561 5.58416 39.6442Q6.35653 36.7322 6.78267 31.5831L7.63494 21.4091L26.1719 21.4091L26.1719 44.0831L30.3622 44.0831L30.3622 56.5476L25.1776 56.5476L25.1776 48.6818L6.16122 48.6818L6.16122 56.5476L0.90554 56.5476ZM8.80682 44.0831L20.9872 44.0831L20.9872 25.9545L12.3935 25.9545L11.8253 31.5831Q11.4347 35.88 10.8043 39.0316Q10.174 42.1832 8.80682 44.0831Z" />
    </g>
    <g fill="#152972" stroke="none" id="о" transform="matrix(0.9588693 -0.283848 0.283848 0.9588693 820.22095 16.665161)">
      <path d="M15.0568 49.2322Q11.2216 49.2322 8.36293 47.4744Q5.50426 45.7166 3.92401 42.5472Q2.34375 39.3778 2.34375 35.1697Q2.34375 30.9261 3.92401 27.7479Q5.50426 24.5696 8.36293 22.8118Q11.2216 21.054 15.0568 21.054Q18.9098 21.054 21.7596 22.8118Q24.6094 24.5696 26.1896 27.7479Q27.7699 30.9261 27.7699 35.1697Q27.7699 39.3778 26.1896 42.5472Q24.6094 45.7166 21.7596 47.4744Q18.9098 49.2322 15.0568 49.2322ZM15.0746 44.7756Q17.5781 44.7756 19.2028 43.4616Q20.8274 42.1477 21.6175 39.9549Q22.4077 37.7621 22.4077 35.152Q22.4077 32.5419 21.6175 30.3402Q20.8274 28.1385 19.2028 26.8157Q17.5781 25.4929 15.0746 25.4929Q12.571 25.4929 10.9375 26.8157Q9.30398 28.1385 8.50497 30.3402Q7.70597 32.5419 7.70597 35.152Q7.70597 37.7621 8.50497 39.9549Q9.30398 42.1477 10.9375 43.4616Q12.571 44.7756 15.0746 44.7756Z" />
    </g>
    <g fill="#152972" stroke="none" id="б" transform="matrix(0.99 -0.16 0.16 0.99 857.8833 5.4786377)">
      <path d="M24.6094 11.2528L26.8111 14.6087Q24.9822 16.2777 22.3633 16.5707Q19.7443 16.8636 15.8203 16.9879Q11.3991 17.1122 9.2951 19.7134Q7.19105 22.3146 6.7294 27.4993L7.06676 27.4993Q8.39844 24.9602 10.7688 23.6996Q13.1392 22.4389 16.1044 22.4389Q19.3892 22.4389 21.9727 23.9482Q24.5561 25.4574 26.0387 28.3604Q27.5213 31.2635 27.5213 35.4538Q27.5213 39.6974 25.9677 42.7869Q24.4141 45.8764 21.5998 47.5543Q18.7855 49.2322 14.968 49.2322Q9.25071 49.2322 5.81499 45.3437Q2.37926 41.4553 2.37926 33.9446L2.37926 31.2457Q2.37926 12.5845 15.696 12.3182Q16.4418 12.3004 17.1254 12.3004Q17.8089 12.3004 18.4304 12.3004Q20.5611 12.3004 22.0881 12.1761Q23.6151 12.0518 24.6094 11.2528ZM14.9858 44.7756Q18.3239 44.7756 20.2415 42.272Q22.1591 39.7685 22.1591 35.5426Q22.1591 31.4055 20.2326 29.1328Q18.3061 26.8601 14.9325 26.8601Q11.6122 26.8601 9.6946 29.1328Q7.77699 31.4055 7.72372 35.5426Q7.72372 39.7685 9.66797 42.272Q11.6122 44.7756 14.9858 44.7756Z" />
    </g>
    <g fill="#152972" stroke="none" id="а" transform="matrix(0.99966186 0.026002474 -0.026002474 0.99966186 899.5835 0.005493164)">
      <path d="M11.5057 49.2855Q8.91335 49.2855 6.82706 48.3267Q4.74077 47.3679 3.51563 45.5124Q2.29048 43.657 2.29048 40.9758Q2.29048 38.6499 3.18714 37.1584Q4.08381 35.6669 5.58416 34.7969Q7.08452 33.9268 8.94886 33.4918Q10.8132 33.0568 12.7486 32.826Q15.1989 32.5419 16.717 32.3555Q18.2351 32.169 18.9364 31.7429Q19.6378 31.3168 19.6378 30.358L19.6378 30.2337Q19.6378 27.9077 18.3327 26.6293Q17.0277 25.3509 14.4531 25.3508Q11.772 25.3509 10.2362 26.5227Q8.70028 27.6946 8.11435 29.1506L3.125 28.0142Q4.45668 24.2855 7.5728 22.6697Q10.6889 21.054 14.3821 21.054Q16.0156 21.054 17.8445 21.4357Q19.6733 21.8175 21.2979 22.8384Q22.9226 23.8594 23.9435 25.7237Q24.9645 27.5881 24.9645 30.571L24.9645 48.6818L19.7798 48.6818L19.7798 44.9531L19.5668 44.9531Q18.8033 46.4801 16.8501 47.8828Q14.897 49.2855 11.5057 49.2855ZM12.6598 45.0241Q14.8793 45.0241 16.4418 44.1541Q18.0043 43.2841 18.8299 41.8725Q19.6555 40.4609 19.6555 38.8452L19.6555 35.3295Q19.2827 35.7024 18.022 35.9865Q16.7614 36.2706 15.3587 36.4659Q13.956 36.6612 13.0859 36.7855Q10.7777 37.0874 9.1353 38.0018Q7.4929 38.9162 7.4929 41.0469Q7.4929 43.0178 8.94886 44.021Q10.4048 45.0241 12.6598 45.0241Z" />
    </g>
    <g fill="#152972" stroke="none" id="к" transform="matrix(0.9849589 0.1727887 -0.1727887 0.9849589 936.32275 1.4405518)">
      <path d="M3.56889 48.6818L3.56889 21.4091L8.87784 21.4091L8.87784 32.8437L11.4347 32.8437L20.4368 21.4091L27.0064 21.4091L16.4418 34.6726L27.1307 48.6818L20.5433 48.6818L12.3224 37.7798L8.87784 37.7798L8.87784 48.6818L3.56889 48.6818Z" />
    </g>
    <g fill="#152972" stroke="none" id="т" transform="matrix(0.9598053 0.28066668 -0.28066668 0.9598053 970.9065 7.998169)">
      <path d="M2.0419 25.9901L2.0419 21.4091L25.0533 21.4091L25.0533 25.9901L16.1577 25.9901L16.1577 48.6818L10.973 48.6818L10.973 25.9901L2.0419 25.9901Z" />
    </g>
    <g fill="#152972" stroke="none" id="е" transform="matrix(0.922201 0.38671094 -0.38671094 0.922201 999.3789 16.458618)">
      <path d="M15.3232 49.2322Q11.3104 49.2322 8.39844 47.4922Q5.48651 45.7521 3.91513 42.6005Q2.34375 39.4489 2.34375 35.223Q2.34375 31.0327 3.91513 27.8366Q5.48651 24.6406 8.31854 22.8473Q11.1506 21.054 14.9503 21.054Q18.0398 21.054 20.8008 22.43Q23.5618 23.8061 25.293 26.8157Q27.0241 29.8253 27.0242 34.7614L27.0242 36.6435L7.63494 36.6435Q7.74148 40.5852 9.8544 42.7159Q11.9673 44.8466 15.3764 44.8466Q17.6491 44.8466 19.3004 43.87Q20.9517 42.8935 21.6619 40.9581L26.6868 41.8636Q25.7812 45.1839 22.7805 47.2081Q19.7798 49.2322 15.3232 49.2322ZM7.6527 32.6662L21.8217 32.6662Q21.804 29.5412 19.9396 27.4904Q18.0753 25.4396 14.9858 25.4396Q12.8374 25.4396 11.2305 26.4428Q9.62358 27.446 8.69141 29.0884Q7.75923 30.7308 7.6527 32.6662Z" />
    </g>
    <g fill="#152972" stroke="none" id="р" transform="matrix(0.82 0.57 -0.57 0.82 1036.8333 32.678345)">
      <path d="M3.56889 58.9091L3.56889 21.4091L8.75355 21.4091L8.75355 25.8303L9.19744 25.8303Q9.67685 24.978 10.538 23.8594Q11.3991 22.7408 12.9528 21.8974Q14.5064 21.054 17.0277 21.054Q20.3303 21.054 22.9137 22.723Q25.4972 24.392 26.9886 27.5348Q28.4801 30.6776 28.4801 35.0987Q28.4801 39.5021 27.0064 42.6715Q25.5327 45.8409 22.9581 47.5277Q20.3835 49.2145 17.081 49.2145Q14.5952 49.2145 13.0327 48.38Q11.4702 47.5455 10.5735 46.4268Q9.67685 45.3082 9.19744 44.4382L8.87784 44.4382L8.87784 58.9091L3.56889 58.9091ZM8.77131 35.0455Q8.77131 39.3423 10.6179 42.0146Q12.4645 44.6868 15.8913 44.6868Q18.2706 44.6868 19.8775 43.4173Q21.4844 42.1477 22.3011 39.9638Q23.1179 37.7798 23.1179 35.0455Q23.1179 32.3288 22.31 30.1893Q21.5021 28.0497 19.9041 26.8068Q18.3061 25.5639 15.8913 25.5639Q12.4112 25.5639 10.5913 28.1651Q8.77131 30.7663 8.77131 35.0455Z" />
    </g>
    <g fill="#152972" stroke="none" id="і" transform="matrix(0.6146983 0.78876233 -0.78876233 0.6146983 1074.4014 63.283813)">
      <path d="M3.56889 48.6818L3.56889 21.4091L8.87784 21.4091L8.87784 48.6818L3.56889 48.6818ZM6.25 17.201Q4.86506 17.201 3.87962 16.2688Q2.89418 15.3366 2.89418 14.0405Q2.89418 12.7266 3.87962 11.7944Q4.86506 10.8622 6.25 10.8622Q7.61719 10.8622 8.61151 11.7944Q9.60582 12.7266 9.60582 14.0405Q9.60582 15.3366 8.61151 16.2688Q7.61719 17.201 6.25 17.201Z" />
    </g>
    <g fill="#152972" stroke="none" id="ї" transform="matrix(0.4883166 0.87266654 -0.87266654 0.4883166 1087.4368 80.88245)">
      <path d="M3.56889 48.6818L3.56889 21.4091L8.87784 21.4091L8.87784 48.6818L3.56889 48.6818ZM1.02983 17.13Q-0.213068 17.13 -1.163 16.2067Q-2.11293 15.2834 -2.11293 14.0405Q-2.11293 12.7266 -1.163 11.8299Q-0.213068 10.9332 1.02983 10.9332Q2.36151 10.9332 3.25817 11.8299Q4.15483 12.7266 4.15483 14.0405Q4.15483 15.2834 3.25817 16.2067Q2.36151 17.13 1.02983 17.13ZM11.4702 17.13Q10.2273 17.13 9.27734 16.2067Q8.32741 15.2834 8.32741 14.0405Q8.32741 12.7266 9.27734 11.8299Q10.2273 10.9332 11.4702 10.9332Q12.8018 10.9332 13.6985 11.8299Q14.5952 12.7266 14.5952 14.0405Q14.5952 15.2834 13.6985 16.2067Q12.8018 17.13 11.4702 17.13Z" />
    </g>
    <g id="Mask-group" transform="translate(7.378174 78.58313)">
      <g id="Group">
        <path d="M2.44513 190.466C-14.8849 115.136 64.6851 46.6557 90.7752 33.7657C107.915 24.5857 127.935 17.5157 144.285 12.4357C168.085 5.04565 182.165 1.00568 202.285 0.135681C226.525 -0.914307 248.595 4.28568 266.935 10.3457C294.445 20.2457 310.035 29.3957 321.425 48.7657C333.155 68.7057 336.495 93.2057 338.225 118.496C339.595 138.496 340.765 158.956 338.605 178.126C336.895 193.396 330.925 210.486 324.975 226.746C318.585 244.226 311.905 260.836 300.865 275.926C291.345 288.926 273.775 305.216 267.125 308.926C265.285 309.926 248.635 320.856 233.765 323.926C221.065 326.926 198.765 323.496 174.335 316.266C151.535 309.546 98.4352 284.006 94.8852 281.836C72.1152 267.936 53.4952 256.636 38.8852 245.146C18.6552 229.276 8.03522 214.376 2.52521 190.406" id="Shape" fill="#DCF2FD" fill-rule="evenodd" stroke="none" />
      </g>
    </g>
    <g id="Group-56" transform="translate(58.46216 106.87854)">
      <path d="M0.703796 72.5155C-0.794678 67.5953 0.129211 62.2561 3.19379 58.1255C37.5738 11.7457 80.7137 0.85571 82.5238 0.415709C91.1676 -1.5707 99.8054 3.74965 101.92 12.3629C104.036 20.9762 98.8446 29.6923 90.2638 31.9356C89.5238 32.1356 56.1538 41.1956 29.2638 77.4555C25.614 82.3826 19.4989 84.8323 13.4568 83.7875C7.41473 82.7428 2.47723 78.3822 0.693787 72.5155" transform="translate(0 19.726562)" id="Shape" fill="#C7EAFB" fill-rule="evenodd" stroke="none" />
      <path d="M0.706787 72.5805C-0.796509 67.6606 0.127686 62.3192 3.19678 58.1905C37.5768 11.8107 80.7068 0.910733 82.5267 0.470671C91.2323 -1.6636 100.02 3.66188 102.157 12.3668C104.294 21.0717 98.9712 29.8611 90.2668 32.0006C89.5167 32.1906 56.1467 41.2506 29.2667 77.5205C25.6156 82.4418 19.504 84.8873 13.4658 83.8429C7.42773 82.7985 2.49255 78.4423 0.706665 72.5805" transform="translate(109.55713 77.521484)" id="Shape" fill="#C7EAFB" fill-rule="evenodd" stroke="none" />
      <path d="M61.1052 4.24501C64.9042 7.71302 66.8304 12.7791 66.2952 17.895C60.3552 75.3148 28.7952 106.675 27.4552 107.985C21.0344 114.133 10.8621 113.972 4.63916 107.623C-1.58362 101.275 -1.54077 91.101 4.73523 84.8047C5.27527 84.2548 29.3652 59.4548 34.0052 14.555C34.6411 8.45935 38.6547 3.24093 44.3828 1.06167C50.1111 -1.11758 56.5782 0.113556 61.1051 4.24507" transform="translate(178.77832 77.197266)" id="Shape" fill="#C7EAFB" fill-rule="evenodd" stroke="none" />
      <path d="M105.405 66.2698C101.72 69.8577 96.552 71.4864 91.4753 70.6598C34.4752 61.3898 5.02521 28.0699 3.79523 26.66C-1.8869 19.8855 -1.10077 9.8092 5.56329 3.99785C12.2274 -1.81341 22.317 -1.22107 28.2552 5.32997C28.7753 5.90004 52.1352 31.3899 96.6853 38.6299C102.737 39.6124 107.719 43.9214 109.563 49.7687C111.407 55.6159 109.799 62.0033 105.405 66.2798" transform="translate(21.308594 158.38281)" id="Shape" fill="#C7EAFB" fill-rule="evenodd" stroke="none" />
      <path d="M1.79169 25.4749L1.79169 25.4749C-0.745483 22.7123 -0.566467 18.4169 2.19171 15.8749L17.5017 1.79498C20.2628 -0.74603 24.5608 -0.567686 27.1018 2.19329C29.6428 4.95427 29.4645 9.25235 26.7035 11.7934L11.3917 25.8849C8.62909 28.4221 4.33374 28.243 1.79175 25.4849" transform="translate(15.211914 144.2168)" id="Shape" fill="#44C8F5" fill-rule="evenodd" stroke="none" />
      <path d="M31.5555 18.9594L31.5555 18.9594C29.8978 22.3215 25.832 23.7081 22.4654 22.0593L3.79553 12.8894C1.61719 11.8181 0.176025 9.66598 0.0150146 7.24384C-0.145996 4.8217 0.99768 2.4977 3.01514 1.14761C5.03247 -0.202483 7.61706 -0.373473 9.7948 0.699033L28.4756 9.85937C31.8391 11.521 33.2252 15.5899 31.5757 18.9593" transform="translate(96.768555 59.742188)" id="Shape" fill="#44C8F5" fill-rule="evenodd" stroke="none" />
      <path d="M31.5155 18.9794L31.5155 18.9794C30.7233 20.5979 29.3201 21.8349 27.6151 22.4183C25.9102 23.0017 24.0432 22.8833 22.4255 22.0893L3.79553 12.8894C1.61719 11.8181 0.176025 9.66592 0.0150146 7.24381C-0.145996 4.8217 0.997681 2.49773 3.01514 1.14764C5.03247 -0.202453 7.61707 -0.373473 9.7948 0.699033L28.4656 9.8594C31.8317 11.5132 33.223 15.5801 31.5757 18.9493" transform="translate(167.34814 188.46289)" id="Shape" fill="#44C8F5" fill-rule="evenodd" stroke="none" />
      <path d="M18.3917 0.601378L18.3917 0.601378C21.7755 2.18755 23.2415 6.20988 21.6718 9.60135L12.8517 28.5013C11.1813 31.7571 7.23401 33.1072 3.91956 31.5564C0.605225 30.0055 -0.887573 26.1099 0.541626 22.7413L9.36157 3.90136C10.9515 0.521422 14.9728 -0.939633 18.3616 0.631346" transform="translate(136.16211 78.94141)" id="Shape" fill="#44C8F5" fill-rule="evenodd" stroke="none" />
      <path d="M6.56348 34.4737L6.56348 34.4737C2.82056 34.3487 -0.114502 31.2169 0.00341797 27.4737L0.713379 6.68376C0.751709 4.22875 2.11255 1.98568 4.27222 0.817594C6.43188 -0.350493 9.05396 -0.261626 11.1296 1.05002C13.2053 2.36166 14.4111 4.6917 14.2832 7.14372L13.5834 27.9337C13.4584 31.6766 10.3264 34.6116 6.58337 34.4937" transform="translate(180.28027 13.71875)" id="Shape" fill="#44C8F5" fill-rule="evenodd" stroke="none" />
      <path d="M22.5811 1.22204L22.5811 1.22204C25.653 3.36864 26.4049 7.59818 24.2611 10.672L12.3611 27.742C10.9731 29.732 8.62903 30.8303 6.21167 30.6233C3.79431 30.4162 1.67102 28.9353 0.641602 26.7383C-0.387817 24.5413 -0.16687 21.962 1.22107 19.972L13.1211 2.90206C15.2715 -0.17105 19.5042 -0.922726 22.5811 1.22207" transform="translate(76.93262 0)" id="Shape" fill="#44C8F5" fill-rule="evenodd" stroke="none" />
      <path d="M13.505 33.5549L13.505 33.5549C9.86822 34.4689 6.17914 32.2617 5.26501 28.625L0.205017 8.44501C-0.706115 4.80586 1.50494 1.11709 5.14392 0.205291C8.78283 -0.706449 12.472 1.50393 13.3845 5.14271L18.445 25.315C18.8835 27.0627 18.6093 28.9132 17.6827 30.4587C16.7562 32.0043 15.2532 33.1181 13.505 33.5549" transform="translate(9.638672 116.49609)" id="Shape" fill="#44C8F5" fill-rule="evenodd" stroke="none" />
      <g id="Group-4" transform="translate(33.757812 8.115234)">
        <path d="M51.426 129.766C45.5862 129.777 40.0887 127.011 36.6161 122.316C-2.44397 69.6764 -0.0539551 19.2266 0.06604 17.1066C0.788086 7.08042 9.41125 -0.517912 19.4486 0.0276183C29.486 0.573118 37.235 9.06122 36.8661 19.1066C36.8661 19.9866 35.676 59.2265 66.206 100.376C70.3601 105.964 71.0086 113.416 67.8822 119.638C64.7557 125.859 58.3886 129.785 51.426 129.786" transform="translate(0.040039062 0)" id="Shape" fill="#44C8F5" fill-rule="evenodd" stroke="none" />
        <path d="M68.8459 102.91C67.5859 107.08 65.4559 111.21 61.2359 113.65C56.6394 116.241 51.0687 116.431 46.306 114.16C40.9958 111.39 40.0659 106 37.0359 98.7196C29.0359 79.4396 19.3659 81.9797 15.4159 65.2497C14.0059 59.2498 14.5259 56.7398 11.8059 40.0198C9.08593 23.2999 8.09588 22.8999 7.68591 16.8499C7.32684 11.1961 7.79168 5.52006 9.06604 0C3.79071 3.11919 0.415893 8.66135 0.06604 14.7799C-0.0540161 16.8999 -2.44403 67.3497 36.6159 119.99C42.0466 127.301 52.0042 129.55 60.0499 125.281C68.0956 121.012 71.8161 111.506 68.8059 102.91" transform="translate(0 2.3261719)" id="Shape" fill="#00AEEF" fill-rule="evenodd" stroke="none" />
      </g>
      <g id="Group" transform="translate(96.44238 126.365234)">
        <path d="M0.271606 69.7891C-0.728027 64.0354 1.06458 58.1491 5.10144 53.9291C50.3716 6.52922 100.502 0.339233 102.622 0.0992429C112.655 -0.93878 121.659 6.28185 122.825 16.3012C123.99 26.3205 116.885 35.4156 106.881 36.7091C106.022 36.8192 67.1516 42.3191 31.7516 79.379C26.9471 84.4146 19.7146 86.3122 13.0566 84.2839C6.3988 82.2557 1.45264 76.648 0.271728 69.7889" transform="translate(0 0.056640625)" id="Shape" fill="#44C8F5" fill-rule="evenodd" stroke="none" />
        <path d="M27.3445 82.826C23.0245 82.2861 18.5945 80.8861 15.4845 77.1361C12.1575 73.0409 11.0377 67.5801 12.4845 62.5061C14.3145 56.8061 19.4845 54.9861 26.1445 50.7662C43.7845 39.6062 39.6445 30.5162 55.4645 23.7662C61.1045 21.3662 63.7045 21.4562 79.7245 15.9462C95.7445 10.4362 95.9645 9.38624 101.854 7.94624C107.365 6.62862 113.039 6.12666 118.695 6.45625C114.723 1.8063 108.702 -0.569121 102.625 0.116241C100.505 0.356231 50.3745 6.54622 5.10449 53.9461C-1.19019 60.5345 -1.72522 70.734 3.84546 77.9448C9.41614 85.1557 19.4203 87.2132 27.3845 82.7861" transform="translate(0.037231445 0)" id="Shape" fill="#00AEEF" fill-rule="evenodd" stroke="none" />
      </g>
      <g id="Group-3" transform="translate(109.30908 11.810547)">
        <path d="M114.707 89.309C116.902 83.8642 116.278 77.7387 113.024 72.809C76.6717 17.4188 26.817 1.48877 24.7397 0.808779C14.7553 -2.128 4.16838 3.17936 0.941901 12.7387C-2.28458 22.2982 3.03959 32.5837 12.9096 35.8589C13.7612 36.1389 52.2221 49.1889 80.6808 92.499C84.5478 98.3794 91.5259 101.661 98.7203 100.982C105.915 100.303 112.099 95.7803 114.707 89.289" transform="translate(0 0.052734375)" id="Shape" fill="#44C8F5" fill-rule="evenodd" stroke="none" />
        <path d="M77.3681 96.7409C81.8862 97.0609 86.7159 96.5709 90.6108 93.5109C94.847 90.1575 97.1186 85.0256 96.697 79.7609C96.0012 73.7609 91.1301 71.0109 85.1995 65.5608C69.5161 51.1508 75.5817 43.0508 60.8538 33.3307C55.5983 29.8707 52.9394 29.4507 37.7545 20.8907C22.5696 12.3307 22.5488 11.2607 16.8363 8.71066C11.4964 6.33538 5.82422 4.72499 0 3.93065C4.99516 0.155701 11.6103 -0.986972 17.6569 0.880648C19.7341 1.54065 69.5888 17.4707 105.941 72.8809C110.987 80.579 109.439 90.6707 102.298 96.6365C95.1576 102.602 84.5625 102.655 77.3578 96.7609" transform="translate(7.072754 0)" id="Shape" fill="#00AEEF" fill-rule="evenodd" stroke="none" />
      </g>
      <g id="Group-2" transform="translate(24.523926 109.78516)">
        <path d="M132.767 39.9856C130.108 45.1848 125.139 48.8138 119.377 49.7655C54.7173 60.5154 10.9073 35.3756 9.07733 34.2957C0.342163 29.1528 -2.59601 17.9187 2.50269 9.15776C7.60138 0.396815 18.8206 -2.59814 27.6074 2.45606C28.3673 2.88598 62.7573 21.8158 113.317 13.4559C120.183 12.3154 127.106 15.1398 131.214 20.7577C135.322 26.3756 135.915 33.8286 132.747 40.0256" transform="translate(0.012756344 0)" id="Shape" fill="#44C8F5" fill-rule="evenodd" stroke="none" />
        <path d="M118.88 0C122.01 2.99996 124.72 6.79991 124.96 11.6598C125.169 16.9362 122.796 21.9839 118.6 25.1897C113.72 28.6497 108.5 27.0197 100.6 26.3897C79.8 24.7197 77.6 34.4796 60.95 30.3897C55.0101 28.9197 52.95 27.2897 36.86 22.0898C20.77 16.8898 19.93 17.5798 14.36 15.1799C9.16351 12.9278 4.32538 9.92591 0 6.26995C0.383667 12.3754 3.78009 17.8898 9.05993 20.9799C10.89 22.0599 54.7 47.1996 119.36 36.4496C128.334 34.9437 134.866 27.1142 134.738 18.016C134.611 8.91774 127.862 1.27409 118.85 0.0200193" transform="translate(0 13.3359375)" id="Shape" fill="#00AEEF" fill-rule="evenodd" stroke="none" />
      </g>
    </g>
    <g id="Mask-group-5" transform="translate(127.58032 317.01917)">
      <g id="Group">
        <path d="M103.254 61.6591C99.816 65.2213 94.8928 66.9427 89.9841 66.2991C34.7541 58.9591 5.39417 27.6392 4.16406 26.2991C0.364563 22.1906 -0.954468 16.3671 0.703918 11.0223C2.3623 5.67761 6.74597 1.62354 12.2039 0.387329C17.6617 -0.848877 23.3645 0.920532 27.1641 5.02905C27.6741 5.56909 50.9241 29.499 94.114 35.2391C99.9762 36.0197 104.899 40.036 106.84 45.6223C108.781 51.2086 107.409 57.4119 103.294 61.6592" transform="translate(0.04119873 0)" id="Shape" fill="#44C8F5" fill-rule="evenodd" stroke="none" />
        <path d="M98.6253 24.4501C100.415 27.6901 101.685 31.4501 100.625 35.4501C99.4897 39.7885 96.3099 43.3005 92.1053 44.8601C87.2753 46.4601 83.4352 43.8601 77.1953 41.3701C60.6953 34.8501 56.5252 42.2401 43.9753 34.7501C39.5053 32.0801 38.2653 30.2501 26.4553 22.0201C14.6452 13.7902 13.8152 14.1501 9.88519 10.8101C6.21796 7.69104 3.03046 4.04858 0.425232 0C-0.778015 5.05725 0.608398 10.382 4.12518 14.2101C5.35516 15.5402 34.7153 46.8601 89.9453 54.2101C97.6181 55.2192 104.878 50.476 107.037 43.0442C109.195 35.6124 105.605 27.718 98.5854 24.4601" transform="translate(0 12.088989)" id="Shape" fill="#00AEEF" fill-rule="evenodd" stroke="none" />
      </g>
    </g>
    <path d="M79.236 60.3597C79.236 60.3597 70.296 47.5697 52.7059 61.2297C35.1158 74.8897 23.486 94.0697 11.606 89.8197C-0.274048 85.5697 -7.98401 68.0497 13.8259 55.5897C36.8259 42.4697 64.1859 45.8596 77.636 19.0197C82.356 9.58966 88.896 -8.58035 99.636 4.67966C110.976 18.6797 93.886 29.9397 94.006 38.1197C94.126 46.2997 99.776 52.0597 107.886 56.0197C115.996 59.9796 125.296 79.3496 110.526 83.3697C95.756 87.3897 79.186 60.3697 79.186 60.3697" transform="translate(821.176 100.87903)" id="Shape-17" fill="#D1FABA" fill-rule="evenodd" stroke="none" />
    <path d="M40.506 37.3226C40.506 37.3226 50.856 49.0025 66.756 33.4025C82.656 17.8026 91.996 -2.59744 104.286 0.272552C116.576 3.14255 126.286 19.6425 106.036 34.5325C84.746 50.2026 57.126 49.9926 46.866 78.2026C43.256 88.1225 38.866 106.923 26.616 94.9925C13.736 82.4326 29.406 69.2425 28.3459 61.1225C27.2859 53.0025 21.006 47.9426 12.496 44.9426C3.98596 41.9426 -7.50403 23.7725 6.71594 18.0826C20.9359 12.3925 40.506 37.3226 40.506 37.3226" transform="translate(853.1472 276.51575)" id="Shape-18" fill="#D1FABA" fill-rule="evenodd" stroke="none" />
    <path d="M43.1295 32.1035C43.1295 32.1035 38.1295 52.0335 48.7395 67.8036C59.3495 83.5736 73.3995 93.3936 69.8094 102.214C66.2194 111.033 51.5995 110.214 47.6095 97.4535C43.6195 84.6935 16.2695 110.624 7.74951 106.724C-3.32043 101.674 -2.81055 92.2035 11.0895 82.6635C23.1395 74.3935 29.5195 73.5835 24.9094 60.9635C20.2993 48.3435 12.7894 57.9635 7.69946 52.1335C1.59949 45.1335 15.6195 42.7435 20.6295 36.2035C25.6395 29.6635 19.4595 18.2035 21.9296 10.0535C27.0496 -6.78647 57.9296 -4.40646 43.1295 32.1035" transform="translate(722.0725 176.75598)" id="Shape-19" fill="#D1FABA" fill-rule="evenodd" stroke="none" />
    <g id="Group-57" transform="translate(870.3728 144.54309)">
      <g id="Group-3">
        <g id="Group-2">
          <g id="Group">
            <path d="M52.6192 101.846C52.6192 101.846 67.6793 87.4957 46.1593 67.0558C24.6393 46.6158 -2.9707 35.1359 0.259277 18.646C3.48925 2.15603 25.0193 -11.5439 45.8093 14.696C67.6793 42.3158 69.2692 51.5558 73.0593 54.1458C79.8693 58.8058 86.6892 42.6758 96.7293 48.7658C106.769 54.8558 103.899 68.1358 94.2193 74.5857C84.5392 81.0356 92.7793 90.0056 106.769 91.4456C120.759 92.8856 143.709 97.8956 130.079 117.625C116.449 137.355 95.6493 115.115 84.8895 116.906C74.1296 118.696 67.6795 127.306 64.0894 138.775C60.4993 150.245 36.8394 166.395 28.5895 147.775C20.3395 129.155 52.5894 101.876 52.5894 101.876" id="Shape" fill="#8AE059" fill-rule="evenodd" stroke="none" />
            <path d="M106.746 71.9297C100.466 71.2797 95.3564 69.1197 92.4864 66.3497C90.7864 65.9797 87.7063 66.5097 80.3364 67.1797C70.4964 67.4297 67.9363 67.8597 62.7464 61.6898C58.0964 56.1597 61.4664 36.1299 33.5064 24.8599C18.5065 18.8599 7.31652 8.38995 0.116455 0C-1.99353 15.9999 25.0064 27.4599 46.1164 47.5398C67.6364 67.9797 52.5764 82.3296 52.5764 82.3296C52.5764 82.3296 38.4764 94.2395 31.2964 107.71C46.4863 91.1496 65.5563 78.2897 75.8863 73.1196C82.0962 70.0097 103.776 72.3596 122.776 75.2396C117.59 73.5154 112.22 72.4045 106.776 71.9296" transform="translate(0.022460938 19.515625)" id="Shape" fill="#7DCC4F" fill-rule="evenodd" stroke="none" />
          </g>
          <path d="M7.7301 17.9999C14.2301 13.6699 17.6401 6.25998 16.1501 0C14.8921 3.69206 12.5544 6.92142 9.44018 9.26998C4.71021 12.69 0.160156 18.4999 0.000244141 23.05C-0.013916 24.259 0.465698 25.4215 1.32825 26.2689C2.1908 27.1164 3.36157 27.5754 4.57019 27.5399L4.57019 27.5399C2.57019 24.4799 3.24023 20.9599 7.7102 17.98" transform="translate(86.48926 56.585938)" id="Shape" fill="#7DCC4F" fill-rule="evenodd" stroke="none" />
        </g>
        <path d="M11.0364 0.808167C1.75635 3.55817 -0.313599 12.3282 0.036377 20.6682C3.86633 12.8182 9.64636 7.22815 18.0364 5.82813C22.1263 5.14813 27.6464 7.91815 33.6764 10.5581C28.9865 4.07813 21.4664 -2.29187 11.0264 0.808105" transform="translate(66.84277 111.078125)" id="Shape" fill="#7DCC4F" fill-rule="evenodd" stroke="none" />
      </g>
    </g>
    <g id="Group-58" transform="translate(753.9348 252.69543)">
      <path d="M56.9804 43.3955C56.9804 43.3955 55.7905 60.8454 80.7404 61.2954C105.69 61.7454 129.32 53.1754 136.68 65.2354C144.04 77.2952 138.48 98.0051 110.68 93.5451C81.4404 88.8552 59.9103 66.6254 29.3103 80.5452C18.5603 85.4552 0.0803223 96.7051 0.000244141 77.5452C-0.0897218 57.3954 22.7703 59.5454 28.4203 52.3255C34.0703 45.1056 33.1803 36.1057 28.8903 26.9557C24.6002 17.8058 30.1002 -5.63398 45.8003 1.24596C61.5004 8.1259 56.9704 43.3356 56.9704 43.3356" id="Shape" fill="#8AE059" fill-rule="evenodd" stroke="none" />
      <path d="M55.7901 64.5594C55.0401 60.6394 57.8901 58.3494 61.1801 54.0795C58.2132 51.0511 56.5696 46.969 56.6102 42.7297C56.6102 42.7297 61.1402 7.50994 45.4401 0.640009C44.8742 0.390438 44.293 0.176695 43.7002 0C46.4801 16.9998 60.7001 53.0896 44.9601 68.6193C39.6801 73.8294 32.2801 75.4993 18.8001 78.5493C12.6297 79.9705 6.33033 80.7579 0 80.8992C2.59998 94.329 19 84.4491 29 79.8992C59.6 65.8994 81.1301 88.1592 110.37 92.8991C133.74 96.6491 141.37 82.5992 138.86 70.8993C131.35 74.6493 121.04 82.8392 102.3 83.1092C83.76 83.3792 57.67 74.2793 55.84 64.6094" transform="translate(0.3569336 0.6640625)" id="Shape" fill="#7DCC4F" fill-rule="evenodd" stroke="none" />
    </g>
    <g id="Group-59" transform="translate(769.6321 182.97083)">
      <path d="M71.2327 101.498C71.2327 101.498 64.4227 77.1482 43.5527 66.6782C22.6827 56.2082 1.55273 54.2483 0.0927733 42.6183C-1.36719 30.9884 14.7027 22.9384 26.7528 34.2383C38.8028 45.5383 52.3227 1.11849 63.8028 0.108489C78.7328 -1.19149 83.9328 9.25844 74.8028 27.9083C66.9228 44.0783 60.5828 48.8182 73.1728 59.5282C85.7627 70.2382 87.9828 55.3882 96.9728 58.5282C107.723 62.2882 94.1928 73.4081 92.7927 83.4481C91.3927 93.488 104.993 102.038 107.283 112.238C112.033 133.378 77.5227 149.588 71.1928 101.498" transform="translate(0.017089844 0)" id="Shape" fill="#8AE059" fill-rule="evenodd" stroke="none" />
      <path d="M102.65 121.559C95.57 121.269 87.6499 117.189 82.6499 111.949C72.08 100.74 80.3899 89.7495 69.8599 74.7897C60.6899 61.7897 53.1099 58.2997 51.2199 53.3997C49.7399 49.5697 58.8499 43.1598 66.4699 43.9198C64.6598 37.9198 69.3799 32.1799 74.8399 20.9199C79.2499 11.92 80.2699 4.77998 78.4799 0C77.5599 8.47997 72.6899 35.2698 53.1799 45.6998C32.1799 56.9297 10.2899 41.1698 8.44994 40.1998C5.43041 38.6114 2.59655 36.693 0 34.4799C0.0101318 34.8645 0.0401611 35.2483 0.0899657 35.6299C1.59997 47.2598 22.6799 49.2098 43.5499 59.6898C64.4198 70.1697 71.2299 94.5096 71.2299 94.5096C75.6299 127.949 93.6599 130.289 102.63 121.509" transform="translate(0 6.9375)" id="Shape" fill="#7DCC4F" fill-rule="evenodd" stroke="none" />
      <path d="M21.11 37.5198C37.0499 36.8998 42.41 9.13994 46.3499 0C35.9299 9.12996 24.2999 41.6898 13.78 31.8298C10.1282 28.2155 5.13281 26.2906 0 26.5199C5.71996 33.1798 12.75 37.9198 21.11 37.5998" transform="translate(12.989746 2.3671875)" id="Shape" fill="#7DCC4F" fill-rule="evenodd" stroke="none" />
      <path d="M1.84717 19.1577C-0.862792 20.4177 -1.15283 27.7977 4.84716 31.7377C6.60058 32.8651 8.71202 33.2966 10.7672 32.9478C8.66722 29.6277 7.2672 26.2577 7.7672 22.6877C8.94725 14.2078 18.7672 4.96784 15.3371 0.0378111C14.7071 -0.872158 11.0972 14.8977 1.9071 19.1577" transform="translate(85.14307 60.73047)" id="Shape" fill="#7DCC4F" fill-rule="evenodd" stroke="none" />
    </g>
    <path d="M19.2007 19.2567C19.2007 19.2567 14.0707 17.8067 12.3707 25.2567C10.6708 32.7067 11.7307 40.2567 7.67078 41.6967C3.61084 43.1367 -2.20923 40.1667 0.860718 32.1667C4.10071 23.7367 12.0807 18.7067 9.86072 8.7067C9.07068 5.18671 6.86072 -1.03329 12.5907 0.146698C18.5907 1.38669 16.5306 8.06671 18.3307 10.2067C20.1307 12.3467 22.8707 12.6467 25.8707 11.9467C28.8707 11.2467 35.5107 14.3567 32.4707 18.6067C29.4307 22.8567 19.2207 19.2967 19.2207 19.2967" transform="translate(780.72144 138.29114)" id="Shape-20" fill="#9EE078" fill-rule="evenodd" stroke="none" />
    <path d="M9.98804 25.2565C9.98804 25.2565 14.698 23.8564 12.368 17.2565C10.0381 10.6565 5.46802 5.25647 7.91809 2.14648C10.3682 -0.963501 16.368 -1.53351 17.9181 6.21649C19.5481 14.3665 15.8081 22.2165 22.488 28.8965C24.828 31.2465 29.608 34.9965 24.578 36.8965C19.278 38.8965 17.578 32.6665 15.158 31.8965C12.7379 31.1265 10.418 32.2365 8.42798 34.2565C6.43799 36.2764 -0.261963 37.1365 0.00793457 32.3365C0.277832 27.5365 10.0079 25.2665 10.0079 25.2665" transform="translate(876.614 201.60168)" id="Shape-21" fill="#9EE078" fill-rule="evenodd" stroke="none" />
    <path d="M35.5796 23.9656C35.5796 23.9656 26.9196 20.3657 19.0896 24.0557C11.2596 27.7457 5.84961 33.4357 2.0896 31.2156C-1.67041 28.9957 -0.300415 22.4456 5.74963 21.5157C11.7997 20.5856 1.94959 6.51569 4.28967 2.89569C7.28967 -1.75436 11.5697 -0.874329 14.9197 6.04571C17.8297 12.0457 17.7596 14.9857 23.7697 13.7657C29.7797 12.5456 25.9596 8.50568 28.9297 6.60565C32.4897 4.32562 32.6296 10.8256 35.2397 13.5257C37.8499 16.2256 43.4597 14.2357 46.9597 15.9057C54.2097 19.3657 51.0198 33.1357 35.5497 23.9656" transform="translate(920.22485 293.44348)" id="Shape-22" fill="#9EE078" fill-rule="evenodd" stroke="none" />
    <path d="M15.2458 4.5802C15.2458 4.5802 23.5059 9.01013 31.6759 6.13013C39.8459 3.25012 45.7759 -1.86987 49.2759 0.700195C52.7759 3.27014 50.7759 9.7002 44.6559 9.98022C38.5359 10.2603 46.9459 25.3202 44.2559 28.6501C40.7759 32.9802 36.6459 31.6501 33.9958 24.4602C31.6958 18.1902 32.0559 15.2802 25.9958 15.9001C19.9358 16.5201 23.2959 20.9001 20.1459 22.5101C16.3759 24.4202 16.8859 17.9502 14.5559 14.9901C12.226 12.0302 6.45593 13.4701 3.14587 11.4601C-3.72412 7.30017 0.805908 -6.08984 15.2859 4.58008" transform="translate(792.4719 332.2091)" id="Shape-23" fill="#9EE078" fill-rule="evenodd" stroke="none" />
    <g fill="#152972" stroke="none" id="Л" transform="matrix(0.755053 -0.6556638 0.6556638 0.755053 0 89.08606)">
      <path d="M1.2429 48.6818L1.2429 43.9233L2.30824 43.8878Q4.49219 43.8345 5.72621 42.4141Q6.96023 40.9936 7.54616 37.8242Q8.1321 34.6548 8.32741 29.3991L8.94886 12.3182L31.9425 12.3182L31.9425 48.6818L26.527 48.6818L26.527 16.9702L14.1158 16.9702L13.5476 30.8551Q13.3168 36.6967 12.3668 40.6651Q11.4169 44.6335 9.17969 46.6577C7.68821 48.0071 5.56345 48.6818 2.8054 48.6818L1.2429 48.6818Z" />
    </g>
    <g fill="#152972" stroke="none" id="а" transform="matrix(0.86654854 -0.49909285 0.49909285 0.86654854 36.748535 58.300903)">
      <path d="M11.5057 49.2855Q8.91335 49.2855 6.82706 48.3267Q4.74077 47.3679 3.51563 45.5124Q2.29048 43.657 2.29048 40.9758Q2.29048 38.6499 3.18714 37.1584Q4.08381 35.6669 5.58416 34.7969Q7.08452 33.9268 8.94886 33.4918Q10.8132 33.0568 12.7486 32.826Q15.1989 32.5419 16.717 32.3555Q18.2351 32.169 18.9364 31.7429Q19.6378 31.3168 19.6378 30.358L19.6378 30.2337Q19.6378 27.9077 18.3327 26.6293Q17.0277 25.3509 14.4531 25.3508Q11.772 25.3509 10.2362 26.5227Q8.70028 27.6946 8.11435 29.1506L3.125 28.0142Q4.45668 24.2855 7.5728 22.6697Q10.6889 21.054 14.3821 21.054Q16.0156 21.054 17.8445 21.4357Q19.6733 21.8175 21.2979 22.8384Q22.9226 23.8594 23.9435 25.7237Q24.9645 27.5881 24.9645 30.571L24.9645 48.6818L19.7798 48.6818L19.7798 44.9531L19.5668 44.9531Q18.8033 46.4801 16.8501 47.8828Q14.897 49.2855 11.5057 49.2855ZM12.6598 45.0241Q14.8793 45.0241 16.4418 44.1541Q18.0043 43.2841 18.8299 41.8725Q19.6555 40.4609 19.6555 38.8452L19.6555 35.3295Q19.2827 35.7024 18.022 35.9865Q16.7614 36.2706 15.3587 36.4659Q13.956 36.6612 13.0859 36.7855Q10.7777 37.0874 9.1353 38.0018Q7.4929 38.9162 7.4929 41.0469Q7.4929 43.0178 8.94886 44.021Q10.4048 45.0241 12.6598 45.0241Z" />
    </g>
    <g fill="#152972" stroke="none" id="к" transform="matrix(0.91968447 -0.39265817 0.39265817 0.91968447 67.62036 41.144165)">
      <path d="M3.56889 48.6818L3.56889 21.4091L8.87784 21.4091L8.87784 32.8437L11.4347 32.8437L20.4368 21.4091L27.0064 21.4091L16.4418 34.6726L27.1307 48.6818L20.5433 48.6818L12.3224 37.7798L8.87784 37.7798L8.87784 48.6818L3.56889 48.6818Z" />
    </g>
    <g fill="#152972" stroke="none" id="т" transform="matrix(0.94 -0.33 0.33 0.94 98.07324 28.578735)">
      <path d="M2.0419 25.9901L2.0419 21.4091L25.0533 21.4091L25.0533 25.9901L16.1577 25.9901L16.1577 48.6818L10.973 48.6818L10.973 25.9901L2.0419 25.9901Z" />
    </g>
    <g fill="#152972" stroke="none" id="о" transform="matrix(0.95486456 -0.2970416 0.2970416 0.95486456 122.41138 19.885376)">
      <path d="M15.0568 49.2322Q11.2216 49.2322 8.36293 47.4744Q5.50426 45.7166 3.92401 42.5472Q2.34375 39.3778 2.34375 35.1697Q2.34375 30.9261 3.92401 27.7479Q5.50426 24.5696 8.36293 22.8118Q11.2216 21.054 15.0568 21.054Q18.9098 21.054 21.7596 22.8118Q24.6094 24.5696 26.1896 27.7479Q27.7699 30.9261 27.7699 35.1697Q27.7699 39.3778 26.1896 42.5472Q24.6094 45.7166 21.7596 47.4744Q18.9098 49.2322 15.0568 49.2322ZM15.0746 44.7756Q17.5781 44.7756 19.2028 43.4616Q20.8274 42.1477 21.6175 39.9549Q22.4077 37.7621 22.4077 35.152Q22.4077 32.5419 21.6175 30.3402Q20.8274 28.1385 19.2028 26.8157Q17.5781 25.4929 15.0746 25.4929Q12.571 25.4929 10.9375 26.8157Q9.30398 28.1385 8.50497 30.3402Q7.70597 32.5419 7.70597 35.152Q7.70597 37.7621 8.50497 39.9549Q9.30398 42.1477 10.9375 43.4616Q12.571 44.7756 15.0746 44.7756Z" />
    </g>
    <g fill="#152972" stroke="none" id="б" transform="matrix(0.9796454 -0.20073597 0.20073597 0.9796454 158.5166 8.456177)">
      <path d="M24.6094 11.2528L26.8111 14.6087Q24.9822 16.2777 22.3633 16.5707Q19.7443 16.8636 15.8203 16.9879Q11.3991 17.1122 9.2951 19.7134Q7.19105 22.3146 6.7294 27.4993L7.06676 27.4993Q8.39844 24.9602 10.7688 23.6996Q13.1392 22.4389 16.1044 22.4389Q19.3892 22.4389 21.9727 23.9482Q24.5561 25.4574 26.0387 28.3604Q27.5213 31.2635 27.5213 35.4538Q27.5213 39.6974 25.9677 42.7869Q24.4141 45.8764 21.5998 47.5543Q18.7855 49.2322 14.968 49.2322Q9.25071 49.2322 5.81499 45.3437Q2.37926 41.4553 2.37926 33.9446L2.37926 31.2457Q2.37926 12.5845 15.696 12.3182Q16.4418 12.3004 17.1254 12.3004Q17.8089 12.3004 18.4304 12.3004Q20.5611 12.3004 22.0881 12.1761Q23.6151 12.0518 24.6094 11.2528ZM14.9858 44.7756Q18.3239 44.7756 20.2415 42.272Q22.1591 39.7685 22.1591 35.5426Q22.1591 31.4055 20.2326 29.1328Q18.3061 26.8601 14.9325 26.8601Q11.6122 26.8601 9.6946 29.1328Q7.77699 31.4055 7.72372 35.5426Q7.72372 39.7685 9.66797 42.272Q11.6122 44.7756 14.9858 44.7756Z" />
    </g>
    <g fill="#152972" stroke="none" id="а" transform="matrix(0.99934745 -0.036120452 0.036120452 0.99934745 198.85718 1.0113525)">
      <path d="M11.5057 49.2855Q8.91335 49.2855 6.82706 48.3267Q4.74077 47.3679 3.51563 45.5124Q2.29048 43.657 2.29048 40.9758Q2.29048 38.6499 3.18714 37.1584Q4.08381 35.6669 5.58416 34.7969Q7.08452 33.9268 8.94886 33.4918Q10.8132 33.0568 12.7486 32.826Q15.1989 32.5419 16.717 32.3555Q18.2351 32.169 18.9364 31.7429Q19.6378 31.3168 19.6378 30.358L19.6378 30.2337Q19.6378 27.9077 18.3327 26.6293Q17.0277 25.3509 14.4531 25.3508Q11.772 25.3509 10.2362 26.5227Q8.70028 27.6946 8.11435 29.1506L3.125 28.0142Q4.45668 24.2855 7.5728 22.6697Q10.6889 21.054 14.3821 21.054Q16.0156 21.054 17.8445 21.4357Q19.6733 21.8175 21.2979 22.8384Q22.9226 23.8594 23.9435 25.7237Q24.9645 27.5881 24.9645 30.571L24.9645 48.6818L19.7798 48.6818L19.7798 44.9531L19.5668 44.9531Q18.8033 46.4801 16.8501 47.8828Q14.897 49.2855 11.5057 49.2855ZM12.6598 45.0241Q14.8793 45.0241 16.4418 44.1541Q18.0043 43.2841 18.8299 41.8725Q19.6555 40.4609 19.6555 38.8452L19.6555 35.3295Q19.2827 35.7024 18.022 35.9865Q16.7614 36.2706 15.3587 36.4659Q13.956 36.6612 13.0859 36.7855Q10.7777 37.0874 9.1353 38.0018Q7.4929 38.9162 7.4929 41.0469Q7.4929 43.0178 8.94886 44.021Q10.4048 45.0241 12.6598 45.0241Z" />
    </g>
    <g fill="#152972" stroke="none" id="к" transform="matrix(0.99231035 0.12377467 -0.12377467 0.99231035 236.24194 0.37316895)">
      <path d="M3.56889 48.6818L3.56889 21.4091L8.87784 21.4091L8.87784 32.8437L11.4347 32.8437L20.4368 21.4091L27.0064 21.4091L16.4418 34.6726L27.1307 48.6818L20.5433 48.6818L12.3224 37.7798L8.87784 37.7798L8.87784 48.6818L3.56889 48.6818Z" />
    </g>
    <g fill="#152972" stroke="none" id="т" transform="matrix(0.97 0.25 -0.25 0.97 271.96313 5.37854)">
      <path d="M2.0419 25.9901L2.0419 21.4091L25.0533 21.4091L25.0533 25.9901L16.1577 25.9901L16.1577 48.6818L10.973 48.6818L10.973 25.9901L2.0419 25.9901Z" />
    </g>
    <g fill="#152972" stroke="none" id="е" transform="matrix(0.9353206 0.35380134 -0.35380134 0.9353206 300.59338 12.752563)">
      <path d="M15.3232 49.2322Q11.3104 49.2322 8.39844 47.4922Q5.48651 45.7521 3.91513 42.6005Q2.34375 39.4489 2.34375 35.223Q2.34375 31.0327 3.91513 27.8366Q5.48651 24.6406 8.31854 22.8473Q11.1506 21.054 14.9503 21.054Q18.0398 21.054 20.8008 22.43Q23.5618 23.8061 25.293 26.8157Q27.0241 29.8253 27.0242 34.7614L27.0242 36.6435L7.63494 36.6435Q7.74148 40.5852 9.8544 42.7159Q11.9673 44.8466 15.3764 44.8466Q17.6491 44.8466 19.3004 43.87Q20.9517 42.8935 21.6619 40.9581L26.6868 41.8636Q25.7812 45.1839 22.7805 47.2081Q19.7798 49.2322 15.3232 49.2322ZM7.6527 32.6662L21.8217 32.6662Q21.804 29.5412 19.9396 27.4904Q18.0753 25.4396 14.9858 25.4396Q12.8374 25.4396 11.2305 26.4428Q9.62358 27.446 8.69141 29.0884Q7.75923 30.7308 7.6527 32.6662Z" />
    </g>
    <g fill="#152972" stroke="none" id="р" transform="matrix(0.86277854 0.5055821 -0.5055821 0.86277854 336.77234 26.499634)">
      <path d="M3.56889 58.9091L3.56889 21.4091L8.75355 21.4091L8.75355 25.8303L9.19744 25.8303Q9.67685 24.978 10.538 23.8594Q11.3991 22.7408 12.9528 21.8974Q14.5064 21.054 17.0277 21.054Q20.3303 21.054 22.9137 22.723Q25.4972 24.392 26.9886 27.5348Q28.4801 30.6776 28.4801 35.0987Q28.4801 39.5021 27.0064 42.6715Q25.5327 45.8409 22.9581 47.5277Q20.3835 49.2145 17.081 49.2145Q14.5952 49.2145 13.0327 48.38Q11.4702 47.5455 10.5735 46.4268Q9.67685 45.3082 9.19744 44.4382L8.87784 44.4382L8.87784 58.9091L3.56889 58.9091ZM8.77131 35.0455Q8.77131 39.3423 10.6179 42.0146Q12.4645 44.6868 15.8913 44.6868Q18.2706 44.6868 19.8775 43.4173Q21.4844 42.1477 22.3011 39.9638Q23.1179 37.7798 23.1179 35.0455Q23.1179 32.3288 22.31 30.1893Q21.5021 28.0497 19.9041 26.8068Q18.3061 25.5639 15.8913 25.5639Q12.4112 25.5639 10.5913 28.1651Q8.77131 30.7663 8.77131 35.0455Z" />
    </g>
    <g fill="#152972" stroke="none" id="і" transform="matrix(0.71 0.7 -0.7 0.71 374.8733 51.95862)">
      <path d="M3.56889 48.6818L3.56889 21.4091L8.87784 21.4091L8.87784 48.6818L3.56889 48.6818ZM6.25 17.201Q4.86506 17.201 3.87962 16.2688Q2.89418 15.3366 2.89418 14.0405Q2.89418 12.7266 3.87962 11.7944Q4.86506 10.8622 6.25 10.8622Q7.61719 10.8622 8.61151 11.7944Q9.60582 12.7266 9.60582 14.0405Q9.60582 15.3366 8.61151 16.2688Q7.61719 17.201 6.25 17.201Z" />
    </g>
    <g fill="#152972" stroke="none" id="ї" transform="matrix(0.58112913 0.81381136 -0.81381136 0.58112913 390.68384 68.53186)">
      <path d="M3.56889 48.6818L3.56889 21.4091L8.87784 21.4091L8.87784 48.6818L3.56889 48.6818ZM1.02983 17.13Q-0.213068 17.13 -1.163 16.2067Q-2.11293 15.2834 -2.11293 14.0405Q-2.11293 12.7266 -1.163 11.8299Q-0.213068 10.9332 1.02983 10.9332Q2.36151 10.9332 3.25817 11.8299Q4.15483 12.7266 4.15483 14.0405Q4.15483 15.2834 3.25817 16.2067Q2.36151 17.13 1.02983 17.13ZM11.4702 17.13Q10.2273 17.13 9.27734 16.2067Q8.32741 15.2834 8.32741 14.0405Q8.32741 12.7266 9.27734 11.8299Q10.2273 10.9332 11.4702 10.9332Q12.8018 10.9332 13.6985 11.8299Q14.5952 12.7266 14.5952 14.0405Q14.5952 15.2834 13.6985 16.2067Q12.8018 17.13 11.4702 17.13Z" />
    </g>
    <g id="Mask-group-6" transform="translate(280.6233 297.13245)">
      <g id="Group">
        <path d="M229.34 120.84C229.34 44.62 126.66 0 0 0" transform="translate(240 112.006165)" id="Shape" fill="none" fill-rule="evenodd" stroke="#F9B7AD" stroke-width="9" />
        <path d="M10.66 29.28L21.3101 0L10.66 12.12L0 0L10.66 29.28L10.66 29.28Z" transform="translate(458.68994 220.7262)" id="Polygon" fill="#F9B7AD" fill-rule="evenodd" stroke="none" />
        <path d="M0 120.84C0 44.62 102.68 0 229.34 0" transform="translate(10.660034 112.006165)" id="Shape" fill="none" fill-rule="evenodd" stroke="#F9B7AD" stroke-width="9" />
        <path d="M10.65 29.28L0 0L10.65 12.12L21.3101 0L10.65 29.28L10.65 29.28Z" transform="translate(0 220.7262)" id="Polygon" fill="#F9B7AD" fill-rule="evenodd" stroke="none" />
        <path d="M262.847 112.306C266.267 55.5062 197.717 16.5062 176.467 10.6462C162.467 6.27618 146.467 3.81622 133.527 2.30621C114.697 0.10614 103.597 -0.943787 88.4067 1.08624C70.0468 3.5462 54.1267 10.2263 41.1167 17.0862C21.6967 27.8862 11.1167 36.5762 5.05664 52.0862C-1.21338 68.0862 -0.603394 86.2363 1.32666 104.766C2.84668 119.406 4.57666 134.366 8.64661 147.946C11.8866 158.766 18.5466 170.346 25.0865 181.316C32.0865 193.126 39.2666 204.246 49.4866 213.706C58.3065 221.846 73.5865 231.296 79.0565 233.126C80.5765 233.636 94.4766 239.306 106.057 239.576C115.987 240.046 132.276 234.636 149.756 226.166C166.037 218.276 202.687 192.766 205.076 190.726C220.416 177.646 232.966 167.006 242.506 156.726C255.687 142.566 261.766 130.376 262.856 112.306" transform="translate(113.15332 0)" id="Shape" fill="#FAC1BB" fill-rule="evenodd" stroke="none" />
      </g>
    </g>
    <g fill="#152972" stroke="none" id="Вуглеводи" transform="translate(414.43335 391.51868)">
      <path d="M3.36 36.5039L16.68 36.5039C23 36.5039 27.16 33.9439 27.16 28.8239C27.16 24.9839 25.16 23.1039 21.92 21.8639C23.92 20.7439 25.6 18.9839 25.6 15.8239C25.6 13.8239 24.96 12.2639 23.68 10.9839C22.08 9.38391 19.56 8.5039 16.36 8.5039L3.36 8.5039L3.36 36.5039ZM9.36 19.8239L9.36 13.9039L15.44 13.9039C18.04 13.9039 19.48 14.9439 19.48 16.7839C19.48 18.9439 17.76 19.8239 15.04 19.8239L9.36 19.8239ZM118.72 32.9839C116.72 35.4639 113.84 36.9839 109.96 36.9839C103.52 36.9839 98.76 32.4639 98.76 25.8239C98.76 19.7039 103.12 14.6639 109.36 14.6639C116.52 14.6639 119.8 20.2239 119.8 26.3039C119.8 26.7839 119.76 27.3439 119.72 27.9039L104.8 27.9039C105.4 30.6639 107.32 32.1039 110.04 32.1039C112.08 32.1039 113.56 31.4639 115.24 29.9039L118.72 32.9839ZM170.48 25.8239C170.48 31.9839 165.52 36.9839 158.84 36.9839C152.2 36.9839 147.28 32.0639 147.28 25.8239C147.28 19.6639 152.24 14.6639 158.92 14.6639C165.56 14.6639 170.48 19.5839 170.48 25.8239ZM36.72 43.0239C40.36 43.0239 42.12 41.3839 43.76 37.0239L52 15.0639L45.68 15.0639L41 29.6639L36.12 15.0639L29.68 15.0639L38.08 36.5839C37.56 37.6639 37 37.9839 35.96 37.9839C35.16 37.9839 34.16 37.6239 33.36 37.1439L31.32 41.5439C32.88 42.4639 34.52 43.0239 36.72 43.0239ZM71.24 15.0639L71.24 20.2639L61.68 20.2639L61.68 36.5039L55.6 36.5039L55.6 15.0639L71.24 15.0639ZM77.12 15.0639C77.12 30.2639 75.92 31.5839 73.64 31.5839C73.36 31.5839 72.6 31.5039 72.36 31.4639L71.96 36.3839C72.76 36.5839 74.24 36.7439 75.04 36.7439C80.4 36.7439 82.84 34.4639 82.84 20.2639L88.28 20.2639L88.28 36.5039L94.36 36.5039L94.36 15.0639L77.12 15.0639ZM124.32 15.0639L124.32 36.5039L136.04 36.5039C141 36.5039 144.04 34.3039 144.04 30.6639C144.04 27.6639 142.44 26.0639 139.84 25.2639C141.68 24.4639 143.24 23.0239 143.24 20.4239C143.24 17.0639 140.4 15.0639 136.08 15.0639L124.32 15.0639ZM191.52 36.5039L191.52 41.5439L196.64 41.5439L197.36 31.3039L194.44 31.3039L194.44 15.0639L176.92 15.0639L176.92 16.9039C176.92 22.0639 176.64 27.4639 174.84 31.3039L172.52 31.3039L172.52 41.5439L177.64 41.5439L178.08 36.5039L191.52 36.5039ZM214.92 15.0639L220.64 15.0639L220.64 36.5039L214.76 36.5039L214.76 24.0239L206.4 36.5039L200.68 36.5039L200.68 15.0639L206.56 15.0639L206.56 27.5839L214.92 15.0639ZM109.36 19.5439C106.84 19.5439 105.2 21.3439 104.72 24.1039L113.88 24.1039C113.52 21.3839 111.92 19.5439 109.36 19.5439ZM130.32 23.6639L130.32 19.5439L134.68 19.5439C136.44 19.5439 137.16 20.4639 137.16 21.5039C137.16 22.7439 136.32 23.6639 134.6 23.6639L130.32 23.6639ZM153.28 25.8239C153.28 28.9839 155.56 31.7439 158.92 31.7439C162.4 31.7439 164.48 29.0639 164.48 25.8239C164.48 22.6639 162.2 19.9039 158.84 19.9039C155.36 19.9039 153.28 22.5839 153.28 25.8239ZM181.04 31.3039C182.36 28.1439 182.6 24.3839 182.64 20.7439L182.64 20.2639L188.36 20.2639L188.36 31.3039L181.04 31.3039ZM9.36 31.1039L9.36 24.9439L16.48 24.9439C19.64 24.9439 21.04 26.1039 21.04 27.9839C21.04 30.1439 19.4 31.1039 16.68 31.1039L9.36 31.1039ZM130.32 31.7439L130.32 27.5039L134.96 27.5039C137.04 27.5039 137.88 28.4239 137.88 29.5839C137.88 30.8639 137 31.7439 135.12 31.7439L130.32 31.7439Z" />
    </g>
    <g id="Mask-group-7" transform="translate(1010.6233 297.13245)">
      <g id="Group">
        <path d="M229.35 120.84C229.35 44.62 126.66 0 0 0" transform="translate(240 112.006165)" id="Shape" fill="none" fill-rule="evenodd" stroke="#FFDB00" stroke-width="9" />
        <path d="M10.6501 29.28L21.3101 0L10.6501 12.12L0 0L10.6501 29.28L10.6501 29.28Z" transform="translate(458.68994 220.7262)" id="Polygon" fill="#FFDB00" fill-rule="evenodd" stroke="none" />
        <path d="M0 120.84C0 44.62 102.68 0 229.34 0" transform="translate(10.660034 112.006165)" id="Shape" fill="none" fill-rule="evenodd" stroke="#FFDB00" stroke-width="9" />
        <path d="M10.66 29.28L0 0L10.66 12.12L21.3101 0L10.66 29.28L10.66 29.28Z" transform="translate(0 220.7262)" id="Polygon" fill="#FFDB00" fill-rule="evenodd" stroke="none" />
        <path d="M262.842 112.306C266.262 55.5062 197.712 16.5062 176.462 10.6462C162.412 6.27618 146.462 3.81622 133.522 2.30621C114.692 0.10614 103.603 -0.943787 88.4023 1.08624C70.0422 3.5462 54.1223 10.2263 41.1123 17.0862C21.7023 27.8862 11.1123 36.5762 5.05225 52.0862C-1.21777 68.0862 -0.597778 86.2363 1.32227 104.766C2.85229 119.406 4.57227 134.366 8.64221 147.946C11.8822 158.766 18.5522 170.346 25.0923 181.316C32.0923 193.126 39.2622 204.246 49.4922 213.706C58.3022 221.846 73.5823 231.296 79.0623 233.126C80.5723 233.636 94.4722 239.306 106.062 239.576C115.982 240.046 132.272 234.636 149.752 226.166C166.032 218.276 202.682 192.766 205.072 190.726C220.412 177.646 232.962 167.006 242.512 156.726C255.682 142.566 261.762 130.376 262.852 112.306" transform="translate(126.157715 0)" id="Shape" fill="#FFDB00" fill-rule="evenodd" stroke="none" />
      </g>
    </g>
    <g fill="#152972" stroke="none" id="Білки" transform="translate(1210.3933 391.51868)">
      <path d="M31.32 12.7039L37.72 12.7039L37.72 7.30391L31.32 7.30391L31.32 12.7039ZM9.52 14.0639L24.84 14.0639L24.84 8.5039L3.36 8.5039L3.36 36.5039L16.32 36.5039C22.8 36.5039 26.76 33.3439 26.76 27.6239C26.76 22.3839 23.24 18.9439 16.92 18.9439L9.52 18.9439L9.52 14.0639ZM31.48 36.5039L37.56 36.5039L37.56 15.0639L31.48 15.0639L31.48 36.5039ZM42.36 31.5839C44.64 31.5839 45.84 30.2639 45.84 15.0639L63.08 15.0639L63.08 36.5039L57 36.5039L57 20.2639L51.56 20.2639C51.56 34.4639 49.12 36.7439 43.76 36.7439C42.96 36.7439 41.48 36.5839 40.68 36.3839L41.08 31.4639C41.32 31.5039 42.08 31.5839 42.36 31.5839ZM68.52 36.5039L74.6 36.5039L74.6 31.3439L77.36 28.3439L83.08 36.5039L90.28 36.5039L81.4 23.8639L89.28 15.0639L82.28 15.0639L74.6 23.8639L74.6 15.0639L68.52 15.0639L68.52 36.5039ZM107.2 15.0639L112.92 15.0639L112.92 36.5039L107.04 36.5039L107.04 24.0239L98.68 36.5039L92.96 36.5039L92.96 15.0639L98.84 15.0639L98.84 27.5839L107.2 15.0639ZM16.28 24.0639C19.2 24.0639 20.6 25.2239 20.6 27.3839C20.6 29.8239 19.2 30.9439 16.32 30.9439L9.52 30.9439L9.52 24.0639L16.28 24.0639Z" />
    </g>
  </g>
</svg>