<?xml version="1.0" encoding="utf-8"?>
<svg width="1220px" height="647px" viewBox="0 0 1220 647" version="1.1" xmlns:xlink="http://www.w3.org/1999/xlink" xmlns="http://www.w3.org/2000/svg">
  <g id="Group-61" transform="translate(4.5 4.5)">
    <g id="Group" transform="translate(226 105.70007)">
      <path d="M223.49 82.24C223.49 27.34 123.43 0 0 0" transform="translate(525.15967 119.145874)" id="Shape" fill="none" fill-rule="evenodd" stroke="#FFDB00" stroke-width="9" />
      <path d="M10.6597 29.28L21.3096 0L10.6597 12.12L0 0L10.6597 29.28L10.6597 29.28Z" transform="translate(737.99023 189.26587)" id="Polygon" fill="#FFDB00" fill-rule="evenodd" stroke="none" />
      <path d="M0 82.24C0 27.34 101.15 0 225.94 0" transform="translate(10.649902 119.145874)" id="Shape" fill="none" fill-rule="evenodd" stroke="#F9B7AD" stroke-width="9" />
      <path d="M10.6499 29.28L0 0L10.6499 12.12L21.3101 0L10.6499 29.28L10.6499 29.28Z" transform="translate(0 189.26587)" id="Polygon" fill="#F9B7AD" fill-rule="evenodd" stroke="none" />
      <path d="M2.44531 190.456C-14.8848 115.126 64.6855 46.6459 90.7754 33.7659C107.916 24.5759 127.936 17.5159 144.285 12.4359C168.095 5.03589 182.165 1.00589 202.285 0.135895C226.525 -0.914093 248.595 4.27591 266.935 10.3459C294.445 20.2359 310.035 29.3959 321.425 48.7559C333.155 68.7059 336.495 93.1959 338.225 118.486C339.595 138.486 340.765 158.946 338.615 178.116C336.895 193.386 330.925 210.476 324.985 226.736C318.595 244.226 311.916 260.826 300.865 275.916C291.345 288.916 273.775 305.206 267.125 308.916C265.295 309.916 248.645 320.846 233.775 323.916C221.075 326.916 198.775 323.486 174.335 316.266C151.535 309.536 98.4351 283.996 94.8848 281.836C72.125 267.926 53.5049 256.626 38.8848 245.136C18.6548 229.266 8.04492 214.376 2.5249 190.396" transform="translate(204.05469 0)" id="Shape" fill="#DCF2FD" fill-rule="evenodd" stroke="none" />
    </g>
    <g id="Group-34" transform="translate(496.8584 173.58484)">
      <path d="M0.192383 49.3874C-0.515625 45.3164 0.753906 41.1512 3.6123 38.1672C35.6123 4.63681 71.0923 0.256748 72.6123 0.0867625C77.2388 -0.449133 81.7998 1.52397 84.5771 5.26279C87.3545 9.00164 87.9268 13.9382 86.0771 18.213C84.228 22.4877 80.2388 25.4512 75.6123 25.9871C74.9922 26.0671 47.5024 29.9871 22.4624 56.1675C19.0737 59.7536 13.9473 61.1123 9.22754 59.6753C4.50732 58.2383 1.00781 54.2534 0.192383 49.3874" transform="translate(0.18701172 0)" id="Shape" fill="#91BFF2" fill-rule="evenodd" stroke="none" />
      <path d="M19.5596 58.5443C16.4995 58.1543 13.3696 57.1743 11.1597 54.5442C8.7998 51.6502 8.00098 47.7867 9.01953 44.1941C10.3096 40.1941 13.9595 38.8641 18.6797 35.884C31.1499 27.9939 28.2295 21.5639 39.4199 16.8038C43.4199 15.1038 45.25 15.1638 56.5801 11.2637C67.9102 7.36371 68.0703 6.62368 72.2402 5.62366C76.1372 4.6914 80.1504 4.33761 84.1504 4.57366C81.3442 1.27718 77.0811 -0.406224 72.7803 0.0836192C71.2803 0.253635 35.7803 4.63366 3.78027 38.1641C-0.819824 42.7919 -1.27686 50.1129 2.7124 55.2767C6.70166 60.4405 13.9004 61.847 19.54 58.5644" transform="translate(0 0.0234375)" id="Shape" fill="#618FD9" fill-rule="evenodd" stroke="none" />
    </g>
    <g id="Group-35" transform="translate(539.50977 186.92664)">
      <path d="M6.51025 92.3155C3.0127 90.1345 0.756836 86.4242 0.430176 82.3156C-3.18994 36.0957 17.2002 6.75589 18.0703 5.52588C20.75 1.72106 25.2559 -0.365263 29.8906 0.0528257C34.5254 0.470915 38.585 3.32988 40.5405 7.55279C42.4956 11.7757 42.0498 16.721 39.3701 20.5258C39.0303 21.0358 23.5903 44.1157 26.4199 80.2556C26.8286 85.1717 24.4194 89.8954 20.2002 92.4512C15.981 95.007 10.6782 94.9545 6.51074 92.3156" id="Shape" fill="#91BFF2" fill-rule="evenodd" stroke="none" />
      <path d="M26.1401 84.1333C23.8203 86.1333 20.9902 87.8333 17.5503 87.7133C13.8208 87.5364 10.4111 85.5554 8.41016 82.4033C6.26025 78.7533 7.72998 75.1734 8.66016 69.6634C11.1001 55.1035 4.36035 52.9935 8.27002 41.4835C9.66992 37.3836 10.9399 36.0536 15.5898 25.0137C20.2397 13.9737 19.7998 13.3537 21.8301 9.57372C23.7368 6.05115 26.1489 2.82689 28.9902 0.00378416C24.665 -0.100372 20.5718 1.95388 18.0703 5.48374C17.2002 6.71375 -3.18945 36.0536 0.430176 82.2734C0.813477 88.7853 5.96338 94.0048 12.4697 94.4755C18.9761 94.9462 24.8232 90.5223 26.1401 84.1334" transform="translate(0.040039062 0.01171875)" id="Shape" fill="#618FD9" fill-rule="evenodd" stroke="none" />
    </g>
    <g id="Group-36" transform="translate(706.02637 145.70007)">
      <path d="M27.2319 1.38016C30.5537 3.16147 32.835 6.41102 33.3818 10.1402C39.522 51.9802 22.7617 79.9402 22.0518 81.1402C18.6382 86.7497 11.3242 88.5304 5.71387 85.118C0.103516 81.7057 -1.6792 74.3918 1.73193 68.7807C2.02197 68.3002 14.6519 46.3402 9.85205 13.6202C9.19873 9.17615 11.1055 4.74314 14.7808 2.16098C18.4561 -0.421173 23.2729 -0.711609 27.2319 1.41016" transform="translate(0 0.08203125)" id="Shape" fill="#91BFF2" fill-rule="evenodd" stroke="none" />
      <path d="M0.000488281 10.1125C2.00049 8.11246 4.46045 6.42246 7.61035 6.33246C11.0137 6.25257 14.2412 7.84379 16.25 10.5925C18.4307 13.7825 17.3105 17.1325 16.8105 22.2025C15.4805 35.6025 21.7407 37.1125 18.8906 47.8325C17.8906 51.6425 16.7905 52.9325 13.2407 63.2725C9.69092 73.6125 10.1309 74.1325 8.51074 77.7025C6.99219 81.0261 4.99414 84.1089 2.58057 86.8525C6.52685 86.6854 10.1304 84.5629 12.1904 81.1926C12.9004 80.0226 29.6606 52.0625 23.5205 10.1925C22.6792 4.36301 17.6973 0.0276489 11.8076 0.00012207C5.91797 -0.0274353 0.895508 4.26114 0 10.0825" transform="translate(9.861328 0)" id="Shape" fill="#618FD9" fill-rule="evenodd" stroke="none" />
    </g>
    <g id="Group-37" transform="translate(591.5713 242.34265)">
      <path d="M20.8765 6.23906C13.5825 3.39325 5.31641 6.50956 1.71631 13.4626C-1.88379 20.4156 0.342285 28.9644 6.87646 33.2783C13.4106 37.5923 22.147 36.2811 27.1265 30.2389C27.7451 29.4717 28.7905 29.1962 29.7065 29.5589C37.0054 32.4284 45.292 29.3188 48.9009 22.3562C52.5103 15.3937 50.2744 6.82981 43.7227 2.51997C37.1704 -1.78987 28.4214 -0.451931 23.4565 5.61901C22.8394 6.38835 21.79 6.66087 20.8765 6.28904" id="Shape" fill="#66CCD6" fill-rule="evenodd" stroke="none" />
      <path d="M10.8096 3.73001C10.1924 4.49936 9.14307 4.77187 8.2295 4.40005C5.61279 3.38071 2.76563 3.10044 0 3.59C4.30957 8.31994 12.4297 15.4499 11.9995 23.8499C11.7114 27.2456 10.3047 30.4498 7.99951 32.9598C10.522 32.0202 12.751 30.4296 14.4595 28.3498C15.0781 27.5827 16.1235 27.3071 17.0396 27.6698C18.7798 28.3512 20.6304 28.7071 22.4995 28.7198C20.6597 23.2199 12.0796 18.6599 12.6196 9.33996C12.8296 5.75997 14.3296 2.43998 15.2798 0C13.5566 0.941948 12.0317 2.20854 10.7896 3.72995" transform="translate(12.647461 1.8398438)" id="Shape" fill="#3BB5C4" fill-rule="evenodd" stroke="none" />
    </g>
    <g id="Group-38" transform="translate(472.13477 160.49304)">
      <path d="M27.2925 12.5189C26.7026 5.54249 20.9375 0.139252 13.9375 0.00265504C6.93799 -0.133972 0.966308 5.04017 0.10498 11.9882C-0.756836 18.9363 3.77051 25.412 10.5923 26.9889C11.4487 27.1789 12.0815 27.9047 12.1523 28.7789C12.7432 35.748 18.5024 41.145 25.4951 41.2825C32.4878 41.42 38.4546 36.2535 39.3188 29.3131C40.1831 22.3726 35.6655 15.9006 28.8525 14.3189C27.9932 14.1278 27.3599 13.3969 27.293 12.5189" id="Shape" fill="#66CCD6" fill-rule="evenodd" stroke="none" />
      <path d="M24.5005 8.71001C23.6416 8.51888 23.0078 7.78804 22.9409 6.91002C22.7295 4.41062 21.8291 2.01874 20.3403 0C18.2603 5.32002 15.7603 14.63 8.87012 17.62C6.03955 18.7317 2.9209 18.8759 0 18.0301C1.75049 19.6748 3.90234 20.8301 6.24023 21.3801C7.09668 21.5701 7.72949 22.2959 7.80029 23.1701C7.94629 24.8302 8.39355 26.4499 9.11963 27.9501C12.8003 24.3201 13.0601 15.6401 20.7402 12.39C23.6904 11.14 26.9404 11.0301 29.2603 10.83C27.8267 9.82076 26.21 9.10067 24.5005 8.71004" transform="translate(4.352051 5.609375)" id="Shape" fill="#3BB5C4" fill-rule="evenodd" stroke="none" />
    </g>
    <g id="Group-39" transform="translate(728.01953 240.40515)">
      <path d="M10.5786 13.5977C3.90918 14.9923 -0.62793 21.2021 0.0708008 27.98C0.769531 34.758 6.47803 39.9114 13.292 39.916C20.106 39.9206 25.8208 34.7747 26.5288 27.9977C26.6426 27.1561 27.2759 26.4785 28.1079 26.3077C34.7646 24.8889 39.2759 18.6738 38.562 11.9054C37.8486 5.137 32.1401 -0.000610349 25.3345 0C18.5283 0.000549314 12.8208 5.13908 12.1084 11.9077C12.0103 12.7521 11.3887 13.442 10.5586 13.6277" id="Shape" fill="#66CCD6" fill-rule="evenodd" stroke="none" />
      <path d="M7.90967 4.78001C7.81152 5.62449 7.18994 6.31436 6.35986 6.49997C3.97168 6.9971 1.76904 8.15029 0 9.82997C5.37988 11.21 14.6699 12.51 18.3799 18.8299C19.793 21.4312 20.2993 24.4288 19.8203 27.3499C21.207 25.4663 22.0664 23.2466 22.3096 20.92C22.4189 20.0647 23.064 19.3755 23.9101 19.2099C25.4966 18.8731 27.0078 18.2495 28.3696 17.3699C24.3696 14.2499 16.0098 15.0299 11.9595 7.99996C10.3994 5.29996 9.89941 2.17998 9.43945 0C8.63183 1.50793 8.12597 3.15862 7.94922 4.85996" transform="translate(4.1992188 7.0976562)" id="Shape" fill="#3BB5C4" fill-rule="evenodd" stroke="none" />
    </g>
    <g id="Group-40" transform="translate(640.51953 184.10828)">
      <path d="M48.769 45.3806C58.1294 35.4524 69.1733 27.2595 81.3892 21.1807C84.8091 19.5993 86.4478 15.6617 85.1592 12.1209C83.9595 9.28757 82.7559 6.45428 81.5493 3.62097C80.1592 0.221006 75.5493 -1.079 71.3394 1.001C56.7339 8.26231 43.5298 18.0535 32.3398 29.9207C29.6792 32.7307 29.2393 36.6106 30.9395 39.1106C28.1895 37.8706 24.4492 38.9706 22.1396 42.1106C12.3848 55.1749 5.02393 69.8655 0.399414 85.5002C-0.92041 89.9701 1.15918 94.3201 4.74951 95.1001L13.7495 97.1801C17.4575 97.8403 21.0513 95.5429 22.0093 91.9001C25.8877 78.8152 32.0493 66.5193 40.21 55.5804C42.0889 53.1013 42.1855 49.7021 40.4497 47.1205C43.2939 48.3838 46.627 47.6963 48.7397 45.4105" transform="translate(0 0.013671875)" id="Shape" fill="#F5BF33" fill-rule="evenodd" stroke="none" />
      <path d="M22.0386 91.8829L22.3286 90.9329C16.6187 89.5129 7.89844 92.8329 5.04883 87.3629C2.49902 81.533 9.73877 75.713 16.5488 57.1632C18.5488 51.9433 20.1289 47.3833 24.2187 45.4133C29.0186 43.1333 33.8887 45.9933 34.9888 46.6533C38.709 48.9833 39.6489 52.1532 41.0488 54.1732C42.1152 51.8804 41.8989 49.1958 40.4785 47.1033C43.3237 48.3669 46.6572 47.6793 48.7695 45.3934L50.6792 43.3933C45.3393 40.6534 37.479 38.7433 37.0093 33.0034C36.6792 27.8535 42.7495 22.8835 52.0693 16.4736C60.5737 10.6309 69.4526 5.35298 78.6489 0.673852C76.2886 -0.325833 73.6035 -0.208311 71.3393 0.993734C56.7339 8.25499 43.5298 18.0462 32.3394 29.9134C29.6792 32.7234 29.2393 36.6034 30.9394 39.1034C28.1894 37.8634 24.4492 38.9634 22.1396 42.1034C12.3857 55.1718 5.0249 69.8655 0.399414 85.503C-0.92041 89.9729 1.15918 94.3229 4.74951 95.1028L13.7495 97.1828C17.4575 97.8431 21.0513 95.5457 22.0093 91.9029" id="Shape" fill="#F5A61C" fill-rule="evenodd" stroke="none" />
    </g>
    <g id="Group-41" transform="translate(583.11523 171.23718)">
      <path d="M64.4224 27.1938C77.5191 31.0211 89.8355 37.1352 100.802 45.2535C103.762 47.5812 108.011 47.2554 110.582 44.5035L116.522 37.4337C118.912 34.6437 117.962 29.9138 114.222 27.1438C101.118 17.4359 86.397 10.1264 70.7422 5.55427C67.042 4.4643 63.3823 5.83427 61.9321 8.48421C61.7822 5.48427 59.1021 2.63432 55.292 1.98434C39.2192 -0.771164 22.7847 -0.656054 6.75195 2.32436C2.17188 3.17431 -0.757813 7.01424 0.171875 10.5642C0.925293 13.5441 1.66846 16.544 2.40186 19.564C3.48633 23.187 7.17676 25.3652 10.8726 24.5639C24.2871 22.0773 38.0352 21.9825 51.4819 24.2839C52.8804 21.4398 56.0542 19.9341 59.1421 20.6499C62.2295 21.3658 64.417 24.1144 64.4214 27.2838" transform="translate(0.0107421875 0)" id="Shape" fill="#F5BF33" fill-rule="evenodd" stroke="none" />
      <path d="M10.8828 24.4509L11.8828 24.2809C10.563 18.551 3.63281 12.2811 7.22266 7.2812C11.2227 2.37129 19.7227 6.18121 39.3525 3.82128C44.9126 3.26129 49.6826 2.5713 53.3027 5.32125C57.5127 8.56117 57.1729 14.2011 57.0825 15.471C56.7026 19.851 54.2925 22.1209 53.1323 24.2909C55.646 24.1876 57.9224 22.7764 59.1323 20.5709C59.3032 23.6799 61.4277 26.3382 64.4224 27.1908C65.3023 27.4408 66.1821 27.7108 67.0523 27.9908C67.0523 21.9909 65.2022 14.1111 70.1123 11.0811C74.5425 8.45116 81.7324 11.6111 91.6621 17.001C100.732 21.925 109.471 27.4366 117.822 33.5007C117.636 30.9484 116.315 28.6143 114.222 27.1408C101.118 17.4329 86.3975 10.1235 70.7427 5.55128C67.042 4.46128 63.3823 5.83125 61.9321 8.48119C61.7822 5.48125 59.1021 2.6313 55.292 1.98132C39.2183 -0.770157 22.7847 -0.655047 6.75147 2.32137C2.17188 3.17129 -0.757813 7.01122 0.171875 10.5611C0.925293 13.5411 1.66846 16.541 2.40186 19.561C3.48975 23.1808 7.17676 25.357 10.8721 24.5608" transform="translate(0 0.0234375)" id="Shape" fill="#F5A61C" fill-rule="evenodd" stroke="none" />
    </g>
    <g id="Group-42" transform="translate(533.1826 291.12195)">
      <path d="M48.8647 32.0407C37.6826 24.2217 27.9727 14.4849 20.1851 3.28095C18.1226 0.128997 13.9897 -0.918297 10.6748 0.870995L2.78467 5.67094C-0.375488 7.54092 -0.985352 12.3308 1.6748 16.1509C10.979 29.5413 22.5815 41.1776 35.9448 50.5204C39.1147 52.7305 43.0049 52.6105 45.2349 50.5206C44.415 53.4304 46.0449 56.9705 49.4448 58.8005C63.792 66.5546 79.3999 71.7042 95.5449 74.0104C100.155 74.6704 104.155 72.0104 104.415 68.3104L105.165 59.1105C105.272 55.343 102.479 52.1198 98.7344 51.6906C85.2271 49.763 72.1685 45.4564 60.165 38.9707C57.437 37.4682 54.0547 37.8703 51.7549 39.9707C52.6064 36.9581 51.4395 33.7381 48.855 31.9708" id="Shape" fill="#F5BF33" fill-rule="evenodd" stroke="none" />
      <path d="M98.7124 42.8296L97.7124 42.6895C97.1323 48.5395 101.712 56.6894 96.7124 60.3094C91.3223 63.6793 84.5122 57.3094 65.1724 53.3094C59.7124 52.0595 54.9722 51.1895 52.4224 47.4295C49.4722 43.0096 51.5923 37.7795 52.0923 36.5996C53.8521 32.5997 56.8623 31.1896 58.6523 29.4997C56.228 28.7828 53.605 29.3901 51.7422 31.0997C52.5938 28.087 51.4268 24.8671 48.8423 23.0997C48.0923 22.5797 47.3521 22.0397 46.6123 21.4998C44.6724 27.1897 43.9224 35.2397 38.3125 36.4997C33.2627 37.5696 27.4624 32.2797 19.7725 23.9998C12.7559 16.4335 6.24219 8.41652 0.272461 0C-0.370117 2.47907 0.136719 5.11565 1.65234 7.17984C10.9473 20.5945 22.5469 32.2549 35.9126 41.6195C39.0825 43.8295 42.9727 43.7096 45.2026 41.6695C44.3828 44.5695 46.0127 48.1095 49.4126 49.9395C63.7598 57.6936 79.3677 62.8432 95.5127 65.1493C100.123 65.8093 104.123 63.1494 104.383 59.4494L105.133 50.2495C105.24 46.482 102.447 43.2588 98.7022 42.8296" transform="translate(0.032226562 8.900391)" id="Shape" fill="#F5A61C" fill-rule="evenodd" stroke="none" />
    </g>
    <g id="Group-43" transform="translate(445 214.29578)">
      <g id="Group-7">
        <path d="M30.2676 21.2557C30.2676 21.2557 36.3276 32.2557 51.6074 22.8657C66.8872 13.4757 77.8672 -0.924192 87.0073 3.5158C96.1475 7.95579 100.827 22.6558 82.2773 30.7557C62.7476 39.2757 57.0972 38.7557 54.9976 40.5857C51.2178 43.8457 59.5977 50.3257 54.4775 55.2556C49.3574 60.1856 42.0474 56.4557 39.7773 49.7956C37.5073 43.1356 30.9775 46.5757 27.9775 54.5256C24.9775 62.4755 18.4873 75.1255 9.06738 64.1056C-0.352539 53.0857 15.8574 44.3657 16.4775 37.7957C17.0977 31.2257 13.0576 26.1257 6.89746 22.2557C0.737305 18.3858 -5.02246 2.05578 7.14746 0.115783C19.3174 -1.82421 30.2676 21.2557 30.2676 21.2557" id="Shape" fill="#59E0A6" fill-rule="evenodd" stroke="none" />
        <path d="M9.24951 51.8308C10.5996 48.2608 12.6494 45.6009 14.7197 44.3609C15.1899 43.4209 15.3599 41.5409 16.1099 37.1209C17.48 31.3309 17.6299 29.7709 22.04 27.6909C25.9902 25.8209 37.1802 30.8909 48.1001 16.2909C53.9399 8.47095 61.77 3.52096 67.79 0.610991C58.7402 -3.09902 47.8901 10.921 32.8799 20.1709C17.6001 29.5909 11.54 18.561 11.54 18.561C11.54 18.561 6.76025 8.47095 0 2.20101C7.33008 13.641 11.8999 26.781 13.3198 33.6109C14.1797 37.7309 9.45996 50.0408 4.82959 60.7009C6.64453 57.9271 8.12793 54.9501 9.24951 51.8309" transform="translate(18.728027 2.6953125)" id="Shape" fill="#4ABD9E" fill-rule="evenodd" stroke="none" />
      </g>
      <path d="M9.91015 9.51001C9.72997 3.66003 4.91015 1.09003 0 0C4 3.46002 6.37011 7.70001 5.89013 12.83C5.6499 15.32 3.18017 18.13 0.700195 21.25C5.22021 19.5 10.1103 16.09 9.91015 9.51001" transform="translate(10.587402 24.966797)" id="Shape" fill="#4ABD9E" fill-rule="evenodd" stroke="none" />
    </g>
    <path d="M5.10986 5.39703C6.62988 9.867 10.4399 13.007 14.3198 13.097C12.353 11.7925 10.8267 9.92426 9.93993 7.73706C8.66992 4.44708 5.93994 0.897034 3.33984 0.0970459C2.63135 -0.0986938 1.87305 0.0043335 1.24219 0.382141C0.610839 0.76001 0.162109 1.3797 0 2.09705L0 2.09705C2.1001 1.40704 4.0498 2.32703 5.10986 5.40704" transform="translate(479.66797 258.69617)" id="Shape-11" fill="#4ABD9E" fill-rule="evenodd" stroke="none" />
    <g id="Group-44" transform="translate(622.334 290.5653)">
      <g id="Group-10">
        <path d="M74.4438 38.1469C74.4438 38.1469 54.8838 34.4569 40.2139 45.5369C25.5439 56.6171 16.8037 70.8171 8.07373 67.8271C-0.65625 64.837 -0.726074 50.6469 11.4536 46.077C23.6333 41.5069 -3.00635 16.4768 0.283691 8.02672C4.57373 -2.97335 13.7637 -2.97335 23.7637 9.92675C32.4238 21.1269 33.5635 27.2569 45.5137 22.1068C57.4639 16.9568 47.7539 10.2067 53.1138 4.95669C59.5137 -1.31336 62.6338 12.1068 69.2437 16.5968C75.8535 21.0868 86.6235 14.4768 94.6235 16.4168C111.193 20.4168 110.624 50.417 74.4434 38.1469" id="Shape" fill="#59E0A6" fill-rule="evenodd" stroke="none" />
        <path d="M97.2495 25.3401C94.5693 30.2401 88.9194 34.4202 83.4897 36.0901C71.8896 39.6402 67.0298 29.9401 52.7998 32.1602C40.3896 34.0901 35.3198 38.2302 31.1997 37.8602C27.9795 37.5703 26.6299 28.8601 29.8198 23.7801C24.9399 22.9601 22.5498 17.6301 16.5498 9.87005C11.6997 3.6 7.0498 0.409976 3.0498 0C8.70996 3.61001 25.9297 16.3901 26.48 33.8002C27.0801 52.5503 8.31982 62.4903 7 63.4504C4.82178 65.0389 2.47412 66.3806 0 67.4504C0.27002 67.5704 0.560059 67.6804 0.850098 67.7804C9.58008 70.7804 18.3101 56.5804 32.9902 45.5002C47.6704 34.4202 67.2202 38.1102 67.2202 38.1102C92.3603 46.6603 100.3 34.7602 97.2202 25.3601" transform="translate(7.2148438 0.087890625)" id="Shape" fill="#4ABD9E" fill-rule="evenodd" stroke="none" />
      </g>
      <path d="M17.6802 30.9C22.81 19.4301 5.08007 5.97009 0 0C2.81006 10.54 21.7402 30.11 11.1099 34.0901C7.26806 35.3867 4.14502 38.234 2.5 41.9401C9.18993 40.2201 14.9902 36.9401 17.6802 30.9401" transform="translate(0.34375 12.017578)" id="Shape" fill="#4ABD9E" fill-rule="evenodd" stroke="none" />
    </g>
    <path d="M8.86425 16.1903C8.80419 18.5403 13.9243 21.3003 18.7744 18.4904C20.1836 17.6508 21.2256 16.3123 21.6943 14.7404C18.6142 15.0603 15.7441 14.8704 13.4043 13.2803C7.82421 9.49036 4.73437 -0.719696 0.0541992 0.0403137C-0.815917 0.170319 9.05419 8.22031 8.86425 16.1903" transform="translate(678.1738 293.91296)" id="Shape-12" fill="#4ABD9E" fill-rule="evenodd" stroke="none" />
    <g id="Group-45" transform="translate(472.7871 247.34851)">
      <path d="M4.19092 26.4843C3.48975 28.2453 3.14941 30.1292 3.19092 32.0242C3.20117 33.9396 3.56006 35.8372 4.25049 37.624C5.53662 41.2183 8.21436 44.1445 11.6812 45.7439C17.3711 48.1939 23.4712 45.7439 26.6011 40.744C30.3857 35.0213 29.5444 27.4121 24.6011 22.6544C23.9907 22.0772 23.8213 21.1732 24.1812 20.4143C27.251 14.1703 25.3809 6.62307 19.751 2.53465C14.9912 -0.945203 8.41113 -1.0052 4.05078 3.37472C1.41113 6.09702 -0.0449219 9.7529 0.000976562 13.5445C0.0205078 15.4344 0.358887 17.3074 1.00146 19.0846C1.64062 20.8379 2.59277 22.4608 3.81104 23.8743C4.43359 24.5765 4.61816 25.5647 4.29102 26.4443" id="Shape" fill="#666BD6" fill-rule="evenodd" stroke="none" />
      <path d="M2.82031 7.88987C3.44336 8.59206 3.62793 9.58026 3.30078 10.4598C2.31055 13.0039 2.03418 15.7699 2.5 18.4597C4.77588 15.955 7.26514 13.6531 9.94043 11.5798C12.9404 9.46985 16.2603 8.07986 19.7603 8.57985C22.5854 9.06788 25.1968 10.3996 27.2505 12.3998C26.8936 11.3436 26.4063 10.3359 25.8003 9.39985C25.1968 8.43343 24.478 7.54362 23.6606 6.74987C23.0669 6.16395 22.8994 5.2712 23.2397 4.50992C23.9502 3.09784 24.4038 1.57077 24.5801 0C22.21 0.489981 19.8901 2.44997 17.21 4.20994C14.5298 5.96992 11.5298 7.52989 7.62988 6.80987C4.62988 6.25989 1.97998 4.4199 0 3.14996C0.640625 4.91385 1.59619 6.54693 2.81982 7.96988" transform="translate(0.890625 16.023438)" id="Shape" fill="#3B40C4" fill-rule="evenodd" stroke="none" />
    </g>
    <g id="Group-46" transform="translate(506.44727 327.68835)">
      <path d="M14.1509 28.5037C15.3188 32.2533 17.834 35.4378 21.2105 37.4436C22.8813 38.4255 24.7134 39.1026 26.6211 39.4437C28.5073 39.7437 30.4355 39.645 32.2813 39.1536C38.2813 37.4437 41.2813 31.5637 40.6113 25.8138C40.0039 19.1384 34.7505 13.8303 28.0815 13.1539C27.2656 13.0629 26.605 12.4504 26.4517 11.6439C25.8872 8.44627 24.2295 5.54396 21.7612 3.43399C19.1943 1.24981 15.9419 0.0358273 12.5718 0.00396725C9.7041 -0.0664667 6.89307 0.808525 4.57178 2.49393C2.21777 4.22134 0.634277 6.80261 0.161621 9.68381C-0.413574 13.4841 0.559082 17.3562 2.86182 20.4338C5.0957 23.5882 8.41357 25.8096 12.1812 26.6738C13.1113 26.8747 13.8564 27.5696 14.1216 28.4837" id="Shape" fill="#666BD6" fill-rule="evenodd" stroke="none" />
      <path d="M5.21973 19.3199C6.1499 19.5209 6.89502 20.2159 7.15967 21.1298C7.53906 22.4488 8.11572 23.7029 8.86963 24.8497C9.60498 26.0304 10.5039 27.1009 11.5395 28.0296C11.7451 24.6521 12.2808 21.3029 13.1392 18.0297C14.1396 14.5798 16.0395 11.4199 19.0796 9.66995C21.5903 8.33415 24.4385 7.76726 27.2695 8.03996C26.3579 7.45721 25.3853 6.97442 24.3701 6.59991C23.3061 6.23627 22.2065 5.98493 21.0898 5.85004C20.2754 5.75581 19.6157 5.14485 19.46 4.33993C19.1802 2.82065 18.6602 1.3557 17.9199 0C16.29 1.7899 15.5601 4.72994 14.4497 7.74993C13.3394 10.7699 11.9199 13.7499 8.35986 15.5598C5.6001 16.9298 2.35986 16.9798 0 17.1098C1.57178 18.2037 3.34668 18.9721 5.22021 19.3698" transform="translate(6.9907227 7.375)" id="Shape" fill="#3B40C4" fill-rule="evenodd" stroke="none" />
    </g>
    <g id="Group-47" transform="translate(540.94824 354.38562)">
      <path d="M20.6494 26.7066C23.2515 29.6932 26.8745 31.601 30.8096 32.0564C34.647 32.6046 38.5415 31.5606 41.5894 29.1665C46.3691 25.1666 46.8096 18.6168 43.8594 13.6069C42.2124 10.7312 39.6284 8.50754 36.5396 7.30701C35.0981 6.75612 33.5728 6.4584 32.0298 6.42703C30.438 6.36074 28.8477 6.59133 27.3398 7.10706C26.5606 7.35034 25.7148 7.03834 25.2798 6.34707C24.8403 5.66252 24.3345 5.02289 23.77 4.43709C23.2368 3.84872 22.6548 3.30686 22.0298 2.81713C21.3999 2.34986 20.731 1.93837 20.0298 1.5873C19.3516 1.21146 18.6382 0.903237 17.8999 0.667281C14.7295 -0.324272 11.3159 -0.207942 8.21973 0.997229C5.5415 2.00685 3.25928 3.85092 1.70996 6.25711C0.144531 8.7258 -0.373535 11.7157 0.269531 14.567C0.675293 16.4343 1.48828 18.1893 2.6499 19.7067C3.81104 21.2652 5.26465 22.5829 6.9292 23.5868C7.76807 24.0985 8.64404 24.5465 9.55029 24.9267C10.4644 25.2663 11.4038 25.5337 12.3599 25.7267C14.2461 26.1361 16.1958 26.1565 18.0898 25.7867C19.0371 25.6253 19.9985 25.975 20.6201 26.7067" id="Shape" fill="#666BD6" fill-rule="evenodd" stroke="none" />
      <path d="M5.76074 22.7593C6.70752 22.598 7.66943 22.9476 8.29101 23.6792C10.125 25.794 12.4941 27.376 15.1504 28.2592C13.9443 25.0674 13.0698 21.7601 12.54 18.3893C12.1006 14.7795 12.5405 11.1996 14.6504 8.38969C16.4038 6.17575 18.7573 4.51295 21.4302 3.59989C19.269 3.25712 17.0576 3.43546 14.98 4.11977C14.2002 4.36317 13.3545 4.05117 12.9194 3.3599C12.0742 2.09248 11.043 0.959693 9.85986 0C9.06005 2.26984 9.47998 5.31981 9.66992 8.45975C9.85986 11.5997 9.66992 15.0395 7.12988 18.0495C6.11572 19.1767 4.93115 20.1383 3.62012 20.8994C2.44629 21.5725 1.23779 22.1833 0 22.7293C1.89453 23.1474 3.85547 23.1712 5.75976 22.7994" transform="translate(12.358398 3.0273438)" id="Shape" fill="#3B40C4" fill-rule="evenodd" stroke="none" />
    </g>
    <g id="Group-48" transform="translate(583.5049 364.2196)">
      <path d="M25.1836 23.7421C28.5928 25.6074 32.5728 26.1418 36.3535 25.2421C38.2373 24.8333 40.0234 24.0623 41.6133 22.9721C43.1963 21.9129 44.5244 20.5161 45.5034 18.882C47.0112 16.3902 47.478 13.4054 46.8032 10.5721C46.1318 7.79417 44.5859 5.30529 42.3931 3.47216C37.2808 -0.989988 29.7129 -1.17077 24.3931 3.04223C23.7339 3.54577 22.8242 3.56603 22.1431 3.09216C16.5176 -0.84387 8.8833 -0.1958 4.00244 4.63219C-0.207031 8.69212 -1.50684 15.1422 2.10303 20.2321C4.38135 23.3151 7.79199 25.3658 11.5835 25.9322C15.3613 26.5732 19.2432 25.816 22.5034 23.8021C23.3042 23.2949 24.3198 23.2718 25.1431 23.742" id="Shape" fill="#666BD6" fill-rule="evenodd" stroke="none" />
      <path d="M5.22998 23.51C6.03125 23.0025 7.04687 22.9794 7.87012 23.4499C10.2729 24.7762 12.9873 25.4324 15.7305 25.3499C13.5391 22.7587 11.5972 19.9663 9.93066 17.0098C8.27002 13.79 7.39014 10.28 8.3501 6.86998C9.23389 4.15734 10.9004 1.76684 13.1401 0C10.9512 0.430175 8.89502 1.37256 7.14014 2.74999C6.48291 3.26 5.56933 3.28027 4.89014 2.79992C3.60596 1.91284 2.18799 1.23755 0.689941 0.799925C0.799805 3.21996 2.35986 5.79991 3.68994 8.73997C5.02002 11.6799 6.12012 14.8399 4.81982 18.5899C3.81982 21.4899 1.57959 23.8199 0 25.5899C1.86719 25.2509 3.65039 24.5512 5.25 23.53" transform="translate(17.313477 0.29296875)" id="Shape" fill="#3B40C4" fill-rule="evenodd" stroke="none" />
    </g>
    <g id="Group-49" transform="translate(627.3418 351.74695)">
      <path d="M28.0967 26.0267C30.0654 26.2458 32.0581 26.0517 33.9473 25.4566C35.8999 24.8846 37.728 23.9518 39.3369 22.7066C40.9297 21.4786 42.2852 19.9707 43.3369 18.2565C44.3125 16.5624 44.9189 14.6813 45.1167 12.7364C45.5566 6.36628 40.7568 1.82615 35.2568 0.476145C28.437 -1.15389 22.6069 1.47616 19.437 7.21627C19.0693 7.95274 18.2285 8.32262 17.437 8.09629C15.8818 7.71079 14.2729 7.5892 12.6772 7.7363C11.9092 7.81235 11.1489 7.95969 10.4077 8.17637C9.65918 8.36473 8.93213 8.62938 8.2373 8.9663C5.22656 10.4011 2.80322 12.8314 1.37744 15.8464C-1.18262 21.0565 -0.262695 27.5967 4.88721 31.1667C8.13281 33.2932 12.1011 34.0147 15.8872 33.1667C19.7549 32.426 23.2065 30.2686 25.5674 27.1167C26.1563 26.3493 27.0933 25.9317 28.0576 26.0067" id="Shape" fill="#666BD6" fill-rule="evenodd" stroke="none" />
      <path d="M12.6689 24.6805C13.2544 23.9149 14.1875 23.4973 15.1484 23.5704C17.9897 23.8464 20.8525 23.3307 23.4189 22.0804C20.3071 20.6525 17.3574 18.8959 14.6191 16.8404C11.7891 14.5103 9.61914 11.5903 9.19922 8.09025C8.9458 5.30687 9.46484 2.50737 10.6992 0C9.83447 0.587414 9.0542 1.29068 8.37988 2.09013C7.64941 2.90216 7.01807 3.79842 6.5 4.7601C6.13184 5.49694 5.29102 5.86682 4.49902 5.64013C3.0293 5.27623 1.50977 5.15135 0 5.27012C0.999512 7.50015 3.33936 9.3902 5.63965 11.5603C7.93994 13.7303 10.1895 16.3404 10.3799 20.2804C10.5098 23.2805 9.27002 26.4306 8.37988 28.5905C10.0513 27.5867 11.5034 26.257 12.6504 24.6805" transform="translate(12.9375 2.4550781)" id="Shape" fill="#3B40C4" fill-rule="evenodd" stroke="none" />
    </g>
    <g id="Group-50" transform="translate(664.9336 319.32117)">
      <path d="M28.0547 26.2218C29.8335 25.2039 31.3931 23.8445 32.6445 22.2219C33.2769 21.3974 33.8325 20.517 34.3047 19.5919C34.7959 18.6761 35.188 17.7107 35.4746 16.7119C36.7393 12.878 36.3062 8.68636 34.2842 5.19202C30.9146 -0.177915 24.3647 -1.07793 19.1045 1.10198C16.1587 2.2432 13.6655 4.31483 12.0044 7.00194C11.6475 7.61948 11.3335 8.26095 11.0649 8.92184C10.814 9.5926 10.6133 10.2812 10.4644 10.9819C10.1675 12.4634 10.1167 13.9838 10.3145 15.4818C10.4038 16.2511 9.94629 16.979 9.21436 17.2318C7.77197 17.7049 6.41943 18.4183 5.21436 19.3418C4.04932 20.1943 3.05225 21.2556 2.27441 22.4717C0.57959 25.1524 -0.203125 28.3096 0.0449219 31.4716C0.394531 37.1816 4.04443 42.7015 10.4043 43.3016C14.4453 43.5457 18.4058 42.0965 21.3345 39.3016C22.8389 37.8564 24.0869 36.1657 25.0239 34.3017C25.9253 32.4957 26.4526 30.5263 26.5747 28.5117C26.6289 27.5123 27.1963 26.6119 28.0747 26.1317" id="Shape" fill="#666BD6" fill-rule="evenodd" stroke="none" />
      <path d="M21.1694 19.1597C21.2236 18.1601 21.791 17.2597 22.6694 16.7797C23.9351 16.0887 25.0825 15.2009 26.0693 14.1497C26.5869 13.6234 27.0708 13.0656 27.5195 12.4797C27.9419 11.8739 28.3325 11.2465 28.6895 10.5997C25.3149 11.3103 21.8662 11.6058 18.4199 11.4797C14.8784 11.3791 11.5142 9.90528 9.03955 7.36979C8.06494 6.299 7.27734 5.07196 6.70947 3.73983C6.20605 2.52976 5.80762 1.27855 5.51953 0C5.21191 0.950795 4.99414 1.92844 4.86914 2.91989C4.79004 3.97603 4.81006 5.03742 4.92969 6.08978C5.01953 6.85905 4.56201 7.58695 3.83008 7.83976C2.4585 8.30618 1.1665 8.98073 0 9.83973C1.99951 11.1997 4.93945 11.5498 8.08935 12.1598C11.2393 12.7698 14.4795 13.5797 16.8491 16.8097C18.689 19.3097 19.1689 22.5697 19.5991 25.0096C20.5107 23.1958 21.0449 21.2158 21.1689 19.1896" transform="translate(5.3847656 9.441406)" id="Shape" fill="#3B40C4" fill-rule="evenodd" stroke="none" />
    </g>
    <g id="Group-51" transform="translate(681.5674 275.7782)">
      <path d="M23.731 22.0647C25.646 18.5322 26.1528 14.406 25.1509 10.5149C24.2827 6.66782 21.856 3.35391 18.4507 1.36506C15.8945 -0.0429985 12.8838 -0.377526 10.0806 0.43502C7.34424 1.23908 4.93262 2.88767 3.19043 5.14502C1.14551 7.67036 0.0205078 10.8158 0 14.0649C0.00830078 17.1661 1.06641 20.1725 3.00098 22.5953C3.5166 23.2228 3.5166 24.1274 3.00049 24.7546C1.08594 27.2101 0.0791016 30.2518 0.150391 33.3645C0.255371 36.6021 1.44971 39.7097 3.54053 42.1843C5.32227 44.4075 7.75098 46.022 10.4907 46.8042C13.3208 47.5928 16.3506 47.1842 18.8706 45.6742C22.25 43.565 24.606 40.1519 25.3804 36.2445C26.2769 32.3511 25.6851 28.2633 23.7202 24.7846C23.2505 23.9389 23.2505 22.9104 23.7202 22.0647" id="Shape" fill="#666BD6" fill-rule="evenodd" stroke="none" />
      <path d="M23.4302 10.8598C22.9604 10.014 22.9604 8.98562 23.4302 8.13987C24.1211 6.92254 24.6235 5.60763 24.9204 4.23991C25.2456 2.85139 25.377 1.42453 25.3105 0C22.7676 2.28829 19.9888 4.29954 17.0205 5.99983C13.7905 7.67985 10.2407 8.48984 6.86035 7.51988C4.18945 6.65582 1.81348 5.06259 0 2.91999C0.451172 5.02701 1.38184 7.00158 2.7207 8.68991C3.23682 9.31734 3.23682 10.2223 2.7207 10.8498C1.81885 12.0446 1.104 13.3697 0.600586 14.7797C3.03076 14.7797 5.7207 13.3797 8.60059 12.1398C11.4805 10.8998 14.7808 9.82984 18.4805 11.2298C21.3203 12.2998 23.6704 14.6898 25.3105 16.4097C25.0537 14.4593 24.4111 12.5795 23.4209 10.8798" transform="translate(0.3408203 13.923828)" id="Shape" fill="#3B40C4" fill-rule="evenodd" stroke="none" />
    </g>
    <g id="Group-52" transform="translate(666.66797 234.9032)">
      <path d="M26.2705 15.9501C26.314 11.8801 24.8052 7.94649 22.0503 4.95009C19.4189 1.90247 15.625 0.105286 11.6001 0C8.66895 0.00512697 5.86963 1.21674 3.85986 3.34998C-0.275391 7.88882 -1.17822 14.5095 1.58984 19.99C3.04102 22.6772 5.36084 24.7925 8.16992 25.9901C8.91309 26.2993 9.33203 27.0919 9.16992 27.8801C8.61426 30.9599 9.1333 34.1371 10.6396 36.8801C12.2559 39.7403 14.7944 41.9681 17.8398 43.2001C20.4653 44.3209 23.3799 44.5766 26.1602 43.9301C29.0093 43.2457 31.4634 41.4437 32.9702 38.9301C34.9409 35.5197 35.4321 31.4517 34.3296 27.6701C33.313 23.8232 30.8994 20.4933 27.5601 18.3299C26.748 17.7972 26.2593 16.8911 26.2603 15.92" id="Shape" fill="#666BD6" fill-rule="evenodd" stroke="none" />
      <path d="M24.4492 10.56C23.6372 10.0271 23.1484 9.12106 23.1494 8.14999C23.2075 5.28328 22.4551 2.45844 20.9795 0C19.8301 3.22773 18.3174 6.31423 16.4697 9.19998C14.3696 12.2 11.6196 14.55 8.16992 15.2701C5.42188 15.7466 2.59619 15.4595 0 14.44C1.37061 16.0686 3.09912 17.3588 5.0498 18.2101C5.79297 18.5193 6.21191 19.3119 6.0498 20.1001C5.91797 20.8495 5.85449 21.6093 5.85938 22.3701C5.83643 23.1058 5.88037 23.8422 5.98926 24.5701C8.11963 23.4601 9.88965 20.9601 11.8799 18.5701C13.8701 16.1801 16.29 13.6801 20.2197 13.2001C21.7358 13.0508 23.2656 13.1488 24.75 13.4902C26.1797 13.8101 27.5293 14.2701 28.6694 14.6301C28.0947 13.8298 27.4526 13.0804 26.7495 12.3901C26.0366 11.7261 25.2632 11.1302 24.4395 10.6101" transform="translate(3.1210938 7.798828)" id="Shape" fill="#3B40C4" fill-rule="evenodd" stroke="none" />
    </g>
    <g id="Group-53" transform="translate(631.63086 209.4071)">
      <path d="M25.7769 6.68601C23.2969 3.31777 19.6157 1.03318 15.4971 0.306001C11.5425 -0.529941 7.41895 0.365328 4.16699 2.76594C-0.783203 6.68601 -0.973145 13.296 1.76709 18.2961C3.22754 21.093 5.55811 23.3392 8.40674 24.6961C11.0918 25.914 14.1118 26.1786 16.9673 25.4461C17.7144 25.2639 18.4854 25.6429 18.7974 26.3461C19.936 29.0642 21.9731 31.3093 24.5679 32.7062C27.3813 34.1436 30.582 34.6379 33.6978 34.1161C36.5142 33.7228 39.144 32.4811 41.2373 30.5562C43.3887 28.5493 44.6099 25.7384 44.6074 22.7961C44.5093 18.7245 42.6929 14.8845 39.6074 12.226C36.5396 9.39934 32.4985 7.86607 28.3276 7.94597C27.3218 7.98344 26.3643 7.51396 25.7778 6.69596" id="Shape" fill="#666BD6" fill-rule="evenodd" stroke="none" />
      <path d="M17.4092 6.60004C16.4033 6.63752 15.4458 6.16803 14.8594 5.35003C13.1323 2.9586 10.7646 1.10401 8.0293 0C9.11035 3.27812 9.78174 6.67725 10.0293 10.1201C10.2949 13.6594 9.18066 17.1642 6.91992 19.9002C5.021 21.8994 2.63721 23.3738 0 24.1802C2.00635 24.6175 4.08594 24.5902 6.08008 24.1001C6.82764 23.9182 7.59814 24.2972 7.91016 25.0002C8.48242 26.3082 9.25488 27.5193 10.1992 28.5902C11.3599 26.4803 11.4697 23.4903 11.7295 20.3402C11.9893 17.1902 12.5093 13.8202 15.4795 11.1502C16.6514 10.1667 17.98 9.38594 19.4092 8.84017C20.7207 8.36549 22.0557 7.95826 23.4092 7.62019C21.4961 6.88898 19.4561 6.54889 17.4097 6.62018" transform="translate(10.917969 1.3359375)" id="Shape" fill="#3B40C4" fill-rule="evenodd" stroke="none" />
    </g>
    <g id="Group-54" transform="translate(363.00012 0)">
      <g fill="#152972" stroke="none" id="К" transform="matrix(0.5222009 -0.85282254 0.85282254 0.5222009 0 164.6666)">
        <path d="M25.5682 48.6818L13.3523 32.3821L9.48153 32.3821L9.48153 48.6818L3.99503 48.6818L3.99503 12.3182L9.48153 12.3182L9.48153 27.6768L11.2749 27.6768L25.0178 12.3182L31.7117 12.3182L17.1697 28.6001L32.2621 48.6818L25.5682 48.6818Z" />
      </g>
      <g fill="#152972" stroke="none" id="и" transform="matrix(0.6291848 -0.7772558 0.7772558 0.6291848 21.56836 130.5875)">
        <path d="M8.77131 41.2422L20.7919 21.4091L26.5092 21.4091L26.5092 48.6818L21.3068 48.6818L21.3068 28.831L9.33949 48.6818L3.56889 48.6818L3.56889 21.4091L8.77131 21.4091L8.77131 41.2422Z" />
      </g>
      <g fill="#152972" stroke="none" id="ш" transform="matrix(0.7220018 -0.6918912 0.6918912 0.7220018 43.856445 102.87656)">
        <path d="M3.56889 21.4091L8.77131 21.4091L8.77131 44.0831L18.1996 44.0831L18.1996 21.4091L23.402 21.4091L23.402 44.0831L32.8303 44.0831L32.8303 21.4091L38.0327 21.4091L38.0327 48.6818L3.56889 48.6818L3.56889 21.4091Z" />
      </g>
      <g fill="#152972" stroke="none" id="к" transform="matrix(0.80696034 -0.5906057 0.5906057 0.80696034 80.041016 69.348724)">
        <path d="M3.56889 48.6818L3.56889 21.4091L8.87784 21.4091L8.87784 32.8437L11.4347 32.8437L20.4368 21.4091L27.0064 21.4091L16.4418 34.6726L27.1307 48.6818L20.5433 48.6818L12.3224 37.7798L8.87784 37.7798L8.87784 48.6818L3.56889 48.6818Z" />
      </g>
      <g fill="#152972" stroke="none" id="о" transform="matrix(0.89725834 -0.44150588 0.44150588 0.89725834 108.25635 49.663666)">
        <path d="M15.0568 49.2322Q11.2216 49.2322 8.36293 47.4744Q5.50426 45.7166 3.92401 42.5472Q2.34375 39.3778 2.34375 35.1697Q2.34375 30.9261 3.92401 27.7479Q5.50426 24.5696 8.36293 22.8118Q11.2216 21.054 15.0568 21.054Q18.9098 21.054 21.7596 22.8118Q24.6094 24.5696 26.1896 27.7479Q27.7699 30.9261 27.7699 35.1697Q27.7699 39.3778 26.1896 42.5472Q24.6094 45.7166 21.7596 47.4744Q18.9098 49.2322 15.0568 49.2322ZM15.0746 44.7756Q17.5781 44.7756 19.2028 43.4616Q20.8274 42.1477 21.6175 39.9549Q22.4077 37.7621 22.4077 35.152Q22.4077 32.5419 21.6175 30.3402Q20.8274 28.1385 19.2028 26.8157Q17.5781 25.4929 15.0746 25.4929Q12.571 25.4929 10.9375 26.8157Q9.30398 28.1385 8.50497 30.3402Q7.70597 32.5419 7.70597 35.152Q7.70597 37.7621 8.50497 39.9549Q9.30398 42.1477 10.9375 43.4616Q12.571 44.7756 15.0746 44.7756Z" />
      </g>
      <g fill="#152972" stroke="none" id="в" transform="matrix(0.93 -0.36 0.36 0.93 139.63135 34.73642)">
        <path d="M3.56889 48.6818L3.56889 21.4091L14.8793 21.4091Q19.4957 21.4091 22.1946 23.3711Q24.8935 25.3331 24.8935 28.6889Q24.8935 31.0859 23.3665 32.4886Q21.8395 33.8913 19.3182 34.3707Q22.0526 34.6903 24.059 36.4925Q26.0653 38.2947 26.0653 41.331Q26.0653 44.5803 23.5707 46.631Q21.076 48.6818 16.6016 48.6818L3.56889 48.6818ZM8.55824 44.2429L16.6016 44.2429Q18.5724 44.2429 19.6911 43.3018Q20.8097 42.3608 20.8097 40.745Q20.8097 38.8452 19.6911 37.7532Q18.5724 36.6612 16.6016 36.6612L8.55824 36.6612L8.55824 44.2429ZM8.55824 32.7727L14.9325 32.7727Q17.1697 32.7727 18.4482 31.8317Q19.7266 30.8906 19.7266 29.2571Q19.7266 27.6768 18.4393 26.7891Q17.152 25.9013 14.8793 25.9013L8.55824 25.9013L8.55824 32.7727Z" />
      </g>
      <g fill="#152972" stroke="none" id="а" transform="matrix(0.95 -0.31 0.31 0.95 167.30127 23.946869)">
        <path d="M11.5057 49.2855Q8.91335 49.2855 6.82706 48.3267Q4.74077 47.3679 3.51563 45.5124Q2.29048 43.657 2.29048 40.9758Q2.29048 38.6499 3.18714 37.1584Q4.08381 35.6669 5.58416 34.7969Q7.08452 33.9268 8.94886 33.4918Q10.8132 33.0568 12.7486 32.826Q15.1989 32.5419 16.717 32.3555Q18.2351 32.169 18.9364 31.7429Q19.6378 31.3168 19.6378 30.358L19.6378 30.2337Q19.6378 27.9077 18.3327 26.6293Q17.0277 25.3509 14.4531 25.3508Q11.772 25.3509 10.2362 26.5227Q8.70028 27.6946 8.11435 29.1506L3.125 28.0142Q4.45668 24.2855 7.5728 22.6697Q10.6889 21.054 14.3821 21.054Q16.0156 21.054 17.8445 21.4357Q19.6733 21.8175 21.2979 22.8384Q22.9226 23.8594 23.9435 25.7237Q24.9645 27.5881 24.9645 30.571L24.9645 48.6818L19.7798 48.6818L19.7798 44.9531L19.5668 44.9531Q18.8033 46.4801 16.8501 47.8828Q14.897 49.2855 11.5057 49.2855ZM12.6598 45.0241Q14.8793 45.0241 16.4418 44.1541Q18.0043 43.2841 18.8299 41.8725Q19.6555 40.4609 19.6555 38.8452L19.6555 35.3295Q19.2827 35.7024 18.022 35.9865Q16.7614 36.2706 15.3587 36.4659Q13.956 36.6612 13.0859 36.7855Q10.7777 37.0874 9.1353 38.0018Q7.4929 38.9162 7.4929 41.0469Q7.4929 43.0178 8.94886 44.021Q10.4048 45.0241 12.6598 45.0241Z" />
      </g>
      <g fill="#152972" stroke="none" id="м" transform="matrix(0.97317886 -0.23004974 0.23004974 0.97317886 208.67871 10.387787)">
        <path d="M18.8743 42.1122L27.6811 21.4091L34.2862 21.4091L34.2862 48.6818L29.1193 48.6818L29.1193 28.9197L20.8452 48.6818L16.9034 48.6818L8.77131 28.8487L8.77131 48.6818L3.56889 48.6818L3.56889 21.4091L10.245 21.4091L18.8743 42.1122Z" />
      </g>
      <g fill="#152972" stroke="none" id="і" transform="matrix(0.9941698 -0.10782584 0.10782584 0.9941698 247.65039 2.1280212)">
        <path d="M3.56889 48.6818L3.56889 21.4091L8.87784 21.4091L8.87784 48.6818L3.56889 48.6818ZM6.25 17.201Q4.86506 17.201 3.87962 16.2688Q2.89418 15.3366 2.89418 14.0405Q2.89418 12.7266 3.87962 11.7944Q4.86506 10.8622 6.25 10.8622Q7.61719 10.8622 8.61151 11.7944Q9.60582 12.7266 9.60582 14.0405Q9.60582 15.3366 8.61151 16.2688Q7.61719 17.201 6.25 17.201Z" />
      </g>
      <g fill="#152972" stroke="none" id="к" transform="matrix(0.9999897 -0.0045378404 0.0045378404 0.9999897 264.54443 0.12704468)">
        <path d="M3.56889 48.6818L3.56889 21.4091L8.87784 21.4091L8.87784 32.8437L11.4347 32.8437L20.4368 21.4091L27.0064 21.4091L16.4418 34.6726L27.1307 48.6818L20.5433 48.6818L12.3224 37.7798L8.87784 37.7798L8.87784 48.6818L3.56889 48.6818Z" />
      </g>
      <g fill="#152972" stroke="none" id="р" transform="matrix(0.98886055 0.14884503 -0.14884503 0.98886055 299.42395 0.44345093)">
        <path d="M3.56889 58.9091L3.56889 21.4091L8.75355 21.4091L8.75355 25.8303L9.19744 25.8303Q9.67685 24.978 10.538 23.8594Q11.3991 22.7408 12.9528 21.8974Q14.5064 21.054 17.0277 21.054Q20.3303 21.054 22.9137 22.723Q25.4972 24.392 26.9886 27.5348Q28.4801 30.6776 28.4801 35.0987Q28.4801 39.5021 27.0064 42.6715Q25.5327 45.8409 22.9581 47.5277Q20.3835 49.2145 17.081 49.2145Q14.5952 49.2145 13.0327 48.38Q11.4702 47.5455 10.5735 46.4268Q9.67685 45.3082 9.19744 44.4382L8.87784 44.4382L8.87784 58.9091L3.56889 58.9091ZM8.77131 35.0455Q8.77131 39.3423 10.6179 42.0146Q12.4645 44.6868 15.8913 44.6868Q18.2706 44.6868 19.8775 43.4173Q21.4844 42.1477 22.3011 39.9638Q23.1179 37.7798 23.1179 35.0455Q23.1179 32.3288 22.31 30.1893Q21.5021 28.0497 19.9041 26.8068Q18.3061 25.5639 15.8913 25.5639Q12.4112 25.5639 10.5913 28.1651Q8.77131 30.7663 8.77131 35.0455Z" />
      </g>
      <g fill="#152972" stroke="none" id="о" transform="matrix(0.9621704 0.2724482 -0.2724482 0.9621704 336.2638 6.5679626)">
        <path d="M15.0568 49.2322Q11.2216 49.2322 8.36293 47.4744Q5.50426 45.7166 3.92401 42.5472Q2.34375 39.3778 2.34375 35.1697Q2.34375 30.9261 3.92401 27.7479Q5.50426 24.5696 8.36293 22.8118Q11.2216 21.054 15.0568 21.054Q18.9098 21.054 21.7596 22.8118Q24.6094 24.5696 26.1896 27.7479Q27.7699 30.9261 27.7699 35.1697Q27.7699 39.3778 26.1896 42.5472Q24.6094 45.7166 21.7596 47.4744Q18.9098 49.2322 15.0568 49.2322ZM15.0746 44.7756Q17.5781 44.7756 19.2028 43.4616Q20.8274 42.1477 21.6175 39.9549Q22.4077 37.7621 22.4077 35.152Q22.4077 32.5419 21.6175 30.3402Q20.8274 28.1385 19.2028 26.8157Q17.5781 25.4929 15.0746 25.4929Q12.571 25.4929 10.9375 26.8157Q9.30398 28.1385 8.50497 30.3402Q7.70597 32.5419 7.70597 35.152Q7.70597 37.7621 8.50497 39.9549Q9.30398 42.1477 10.9375 43.4616Q12.571 44.7756 15.0746 44.7756Z" />
      </g>
      <g fill="#152972" stroke="none" id="ф" transform="matrix(0.9087997 0.41723272 -0.41723272 0.9087997 372.9132 17.146576)">
        <path d="M15.3054 57.968L15.3054 49.2322Q11.4524 49.2322 8.53161 47.4656Q5.6108 45.6989 3.97727 42.5383Q2.34375 39.3778 2.34375 35.1697Q2.34375 30.9261 3.97727 27.7567Q5.6108 24.5874 8.53161 22.8207Q11.4524 21.054 15.3054 21.054L15.3054 12.3182L20.6143 12.3182L20.6143 21.054Q24.4673 21.054 27.3793 22.8207Q30.2912 24.5874 31.9247 27.7567Q33.5582 30.9261 33.5582 35.1697Q33.5582 39.3778 31.9247 42.5383Q30.2912 45.6989 27.3793 47.4656Q24.4673 49.2322 20.6143 49.2322L20.6143 57.968L15.3054 57.968ZM15.3054 44.7578L15.3054 25.5284Q12.7663 25.5284 11.0795 26.8601Q9.39275 28.1918 8.55824 30.3846Q7.72372 32.5774 7.72372 35.1697Q7.72372 37.7443 8.55824 39.9283Q9.39275 42.1122 11.0795 43.435Q12.7663 44.7578 15.3054 44.7578ZM20.6143 44.7578Q23.1712 44.7578 24.8491 43.435Q26.527 42.1122 27.3526 39.9283Q28.1783 37.7443 28.1783 35.1697Q28.1783 32.5774 27.3526 30.3846Q26.527 28.1918 24.8491 26.8601Q23.1712 25.5284 20.6143 25.5284L20.6143 44.7578Z" />
      </g>
      <g fill="#152972" stroke="none" id="л" transform="matrix(0.7323053 0.6809765 -0.6809765 0.7323053 423.9303 43.541595)">
        <path d="M1.42045 48.6818L1.4027 44.0831L2.37926 44.0831Q3.90625 44.0831 4.78516 43.1864Q5.66406 42.2898 6.10795 39.9904Q6.55185 37.6911 6.71165 33.483L7.19105 21.4091L26.2251 21.4091L26.2251 48.6818L21.0227 48.6818L21.0227 25.9901L12.1094 25.9901L11.6832 35.2585Q11.3636 42.0234 9.47266 45.3526Q7.58168 48.6818 3.125 48.6818L1.42045 48.6818Z" />
      </g>
      <g fill="#152972" stroke="none" id="о" transform="matrix(0.46638665 0.88458097 -0.88458097 0.46638665 455.34045 76.507416)">
        <path d="M15.0568 49.2322Q11.2216 49.2322 8.36293 47.4744Q5.50426 45.7166 3.92401 42.5472Q2.34375 39.3778 2.34375 35.1697Q2.34375 30.9261 3.92401 27.7479Q5.50426 24.5696 8.36293 22.8118Q11.2216 21.054 15.0568 21.054Q18.9098 21.054 21.7596 22.8118Q24.6094 24.5696 26.1896 27.7479Q27.7699 30.9261 27.7699 35.1697Q27.7699 39.3778 26.1896 42.5472Q24.6094 45.7166 21.7596 47.4744Q18.9098 49.2322 15.0568 49.2322ZM15.0746 44.7756Q17.5781 44.7756 19.2028 43.4616Q20.8274 42.1477 21.6175 39.9549Q22.4077 37.7621 22.4077 35.152Q22.4077 32.5419 21.6175 30.3402Q20.8274 28.1385 19.2028 26.8157Q17.5781 25.4929 15.0746 25.4929Q12.571 25.4929 10.9375 26.8157Q9.30398 28.1385 8.50497 30.3402Q7.70597 32.5419 7.70597 35.152Q7.70597 37.7621 8.50497 39.9549Q9.30398 42.1477 10.9375 43.4616Q12.571 44.7756 15.0746 44.7756Z" />
      </g>
      <g fill="#152972" stroke="none" id="р" transform="matrix(0.26 0.97 -0.97 0.26 473.76135 113.80673)">
        <path d="M3.56889 58.9091L3.56889 21.4091L8.75355 21.4091L8.75355 25.8303L9.19744 25.8303Q9.67685 24.978 10.538 23.8594Q11.3991 22.7408 12.9528 21.8974Q14.5064 21.054 17.0277 21.054Q20.3303 21.054 22.9137 22.723Q25.4972 24.392 26.9886 27.5348Q28.4801 30.6776 28.4801 35.0987Q28.4801 39.5021 27.0064 42.6715Q25.5327 45.8409 22.9581 47.5277Q20.3835 49.2145 17.081 49.2145Q14.5952 49.2145 13.0327 48.38Q11.4702 47.5455 10.5735 46.4268Q9.67685 45.3082 9.19744 44.4382L8.87784 44.4382L8.87784 58.9091L3.56889 58.9091ZM8.77131 35.0455Q8.77131 39.3423 10.6179 42.0146Q12.4645 44.6868 15.8913 44.6868Q18.2706 44.6868 19.8775 43.4173Q21.4844 42.1477 22.3011 39.9638Q23.1179 37.7798 23.1179 35.0455Q23.1179 32.3288 22.31 30.1893Q21.5021 28.0497 19.9041 26.8068Q18.3061 25.5639 15.8913 25.5639Q12.4112 25.5639 10.5913 28.1651Q8.77131 30.7663 8.77131 35.0455Z" />
      </g>
      <g fill="#152972" stroke="none" id="а" transform="matrix(0.12 0.99 -0.99 0.12 482.5514 150.84677)">
        <path d="M11.5057 49.2855Q8.91335 49.2855 6.82706 48.3267Q4.74077 47.3679 3.51563 45.5124Q2.29048 43.657 2.29048 40.9758Q2.29048 38.6499 3.18714 37.1584Q4.08381 35.6669 5.58416 34.7969Q7.08452 33.9268 8.94886 33.4918Q10.8132 33.0568 12.7486 32.826Q15.1989 32.5419 16.717 32.3555Q18.2351 32.169 18.9364 31.7429Q19.6378 31.3168 19.6378 30.358L19.6378 30.2337Q19.6378 27.9077 18.3327 26.6293Q17.0277 25.3509 14.4531 25.3508Q11.772 25.3509 10.2362 26.5227Q8.70028 27.6946 8.11435 29.1506L3.125 28.0142Q4.45668 24.2855 7.5728 22.6697Q10.6889 21.054 14.3821 21.054Q16.0156 21.054 17.8445 21.4357Q19.6733 21.8175 21.2979 22.8384Q22.9226 23.8594 23.9435 25.7237Q24.9645 27.5881 24.9645 30.571L24.9645 48.6818L19.7798 48.6818L19.7798 44.9531L19.5668 44.9531Q18.8033 46.4801 16.8501 47.8828Q14.897 49.2855 11.5057 49.2855ZM12.6598 45.0241Q14.8793 45.0241 16.4418 44.1541Q18.0043 43.2841 18.8299 41.8725Q19.6555 40.4609 19.6555 38.8452L19.6555 35.3295Q19.2827 35.7024 18.022 35.9865Q16.7614 36.2706 15.3587 36.4659Q13.956 36.6612 13.0859 36.7855Q10.7777 37.0874 9.1353 38.0018Q7.4929 38.9162 7.4929 41.0469Q7.4929 43.0178 8.94886 44.021Q10.4048 45.0241 12.6598 45.0241Z" />
      </g>
    </g>
    <g id="Group-55" transform="translate(0 380.70007)">
      <g id="Mask-group">
        <g id="Group">
          <path d="M229.34 120.84C229.34 44.62 126.66 0 0 0" transform="translate(239.99976 112.00343)" id="Shape" fill="none" fill-rule="evenodd" stroke="#F9B7AD" stroke-width="9" />
          <path d="M10.6597 29.28L21.3198 0L10.6597 12.12L0 0L10.6597 29.28L10.6597 29.28Z" transform="translate(458.68018 220.72336)" id="Polygon" fill="#F9B7AD" fill-rule="evenodd" stroke="none" />
          <path d="M0 120.84C0 44.62 102.68 0 229.35 0" transform="translate(10.649902 112.00343)" id="Shape" fill="none" fill-rule="evenodd" stroke="#F9B7AD" stroke-width="9" />
          <path d="M10.6499 29.28L0 0L10.6499 12.12L21.3101 0L10.6499 29.28L10.6499 29.28Z" transform="translate(0 220.72336)" id="Polygon" fill="#F9B7AD" fill-rule="evenodd" stroke="none" />
          <path d="M262.842 112.303C266.261 55.5136 197.721 16.5137 176.462 10.6435C162.462 6.27355 146.462 3.8136 133.522 2.30359C114.692 0.113525 103.602 -0.94641 88.4016 1.08362C70.0515 3.54358 54.1216 10.2236 41.1116 17.0836C21.7017 27.8835 11.1116 36.5736 5.06152 52.0836C-1.21851 68.0836 -0.598389 86.2336 1.32153 104.763C2.85156 119.403 4.58154 134.373 8.6416 147.953C11.8816 158.773 18.5515 170.343 25.0916 181.323C32.0916 193.123 39.2615 204.253 49.4915 213.703C58.3015 221.853 73.5815 231.303 79.0615 233.123C80.5715 233.633 94.4814 239.303 106.062 239.583C115.981 240.053 132.271 234.633 149.751 226.163C166.031 218.273 202.691 192.763 205.082 190.723C220.412 177.643 232.971 167.003 242.511 156.723C255.691 142.563 261.771 130.374 262.852 112.303" transform="translate(113.13843 0)" id="Shape" fill="#FAC1BB" fill-rule="evenodd" stroke="none" />
        </g>
      </g>
      <g fill="#152972" stroke="none" id="Вуглеводи" transform="translate(133.80005 94.393555)">
        <path d="M3.36 36.5039L16.68 36.5039C23 36.5039 27.16 33.9439 27.16 28.8239C27.16 24.9839 25.16 23.1039 21.92 21.8639C23.92 20.7439 25.6 18.9839 25.6 15.8239C25.6 13.8239 24.96 12.2639 23.68 10.9839C22.08 9.38391 19.56 8.5039 16.36 8.5039L3.36 8.5039L3.36 36.5039ZM9.36 19.8239L9.36 13.9039L15.44 13.9039C18.04 13.9039 19.48 14.9439 19.48 16.7839C19.48 18.9439 17.76 19.8239 15.04 19.8239L9.36 19.8239ZM118.72 32.9839C116.72 35.4639 113.84 36.9839 109.96 36.9839C103.52 36.9839 98.76 32.4639 98.76 25.8239C98.76 19.7039 103.12 14.6639 109.36 14.6639C116.52 14.6639 119.8 20.2239 119.8 26.3039C119.8 26.7839 119.76 27.3439 119.72 27.9039L104.8 27.9039C105.4 30.6639 107.32 32.1039 110.04 32.1039C112.08 32.1039 113.56 31.4639 115.24 29.9039L118.72 32.9839ZM170.48 25.8239C170.48 31.9839 165.52 36.9839 158.84 36.9839C152.2 36.9839 147.28 32.0639 147.28 25.8239C147.28 19.6639 152.24 14.6639 158.92 14.6639C165.56 14.6639 170.48 19.5839 170.48 25.8239ZM36.72 43.0239C40.36 43.0239 42.12 41.3839 43.76 37.0239L52 15.0639L45.68 15.0639L41 29.6639L36.12 15.0639L29.68 15.0639L38.08 36.5839C37.56 37.6639 37 37.9839 35.96 37.9839C35.16 37.9839 34.16 37.6239 33.36 37.1439L31.32 41.5439C32.88 42.4639 34.52 43.0239 36.72 43.0239ZM71.24 15.0639L71.24 20.2639L61.68 20.2639L61.68 36.5039L55.6 36.5039L55.6 15.0639L71.24 15.0639ZM77.12 15.0639C77.12 30.2639 75.92 31.5839 73.64 31.5839C73.36 31.5839 72.6 31.5039 72.36 31.4639L71.96 36.3839C72.76 36.5839 74.24 36.7439 75.04 36.7439C80.4 36.7439 82.84 34.4639 82.84 20.2639L88.28 20.2639L88.28 36.5039L94.36 36.5039L94.36 15.0639L77.12 15.0639ZM124.32 15.0639L124.32 36.5039L136.04 36.5039C141 36.5039 144.04 34.3039 144.04 30.6639C144.04 27.6639 142.44 26.0639 139.84 25.2639C141.68 24.4639 143.24 23.0239 143.24 20.4239C143.24 17.0639 140.4 15.0639 136.08 15.0639L124.32 15.0639ZM191.52 36.5039L191.52 41.5439L196.64 41.5439L197.36 31.3039L194.44 31.3039L194.44 15.0639L176.92 15.0639L176.92 16.9039C176.92 22.0639 176.64 27.4639 174.84 31.3039L172.52 31.3039L172.52 41.5439L177.64 41.5439L178.08 36.5039L191.52 36.5039ZM214.92 15.0639L220.64 15.0639L220.64 36.5039L214.76 36.5039L214.76 24.0239L206.4 36.5039L200.68 36.5039L200.68 15.0639L206.56 15.0639L206.56 27.5839L214.92 15.0639ZM109.36 19.5439C106.84 19.5439 105.2 21.3439 104.72 24.1039L113.88 24.1039C113.52 21.3839 111.92 19.5439 109.36 19.5439ZM130.32 23.6639L130.32 19.5439L134.68 19.5439C136.44 19.5439 137.16 20.4639 137.16 21.5039C137.16 22.7439 136.32 23.6639 134.6 23.6639L130.32 23.6639ZM153.28 25.8239C153.28 28.9839 155.56 31.7439 158.92 31.7439C162.4 31.7439 164.48 29.0639 164.48 25.8239C164.48 22.6639 162.2 19.9039 158.84 19.9039C155.36 19.9039 153.28 22.5839 153.28 25.8239ZM181.04 31.3039C182.36 28.1439 182.6 24.3839 182.64 20.7439L182.64 20.2639L188.36 20.2639L188.36 31.3039L181.04 31.3039ZM9.36 31.1039L9.36 24.9439L16.48 24.9439C19.64 24.9439 21.04 26.1039 21.04 27.9839C21.04 30.1439 19.4 31.1039 16.68 31.1039L9.36 31.1039ZM130.32 31.7439L130.32 27.5039L134.96 27.5039C137.04 27.5039 137.88 28.4239 137.88 29.5839C137.88 30.8639 137 31.7439 135.12 31.7439L130.32 31.7439Z" />
      </g>
      <g id="Group" transform="translate(730.0001 6.9995117)">
        <path d="M229.34 120.84C229.34 44.6199 126.66 0 0 0" transform="translate(240 112.0033)" id="Shape" fill="none" fill-rule="evenodd" stroke="#FFDB00" stroke-width="9" />
        <path d="M10.6499 29.28L21.3101 0L10.6499 12.12L0 0L10.6499 29.28L10.6499 29.28Z" transform="translate(458.68994 220.7234)" id="Polygon" fill="#FFDB00" fill-rule="evenodd" stroke="none" />
        <path d="M0 120.84C0 44.6199 102.68 0 229.35 0" transform="translate(10.649902 112.0033)" id="Shape" fill="none" fill-rule="evenodd" stroke="#FFDB00" stroke-width="9" />
        <path d="M10.6499 29.28L0 0L10.6499 12.12L21.3101 0L10.6499 29.28L10.6499 29.28Z" transform="translate(0 220.7234)" id="Polygon" fill="#FFDB00" fill-rule="evenodd" stroke="none" />
        <path d="M262.846 112.303C266.256 55.5136 197.716 16.5137 176.466 10.6435C162.417 6.27355 146.466 3.81359 133.526 2.30359C114.687 0.113525 103.596 -0.94641 88.3965 1.08362C70.0464 3.54357 54.1265 10.2236 41.1167 17.0836C21.6968 27.8835 11.1167 36.5736 5.05664 52.0836C-1.21338 68.0835 -0.603516 86.2335 1.32666 104.763C2.84668 119.403 4.57666 134.373 8.63672 147.953C11.877 158.773 18.5469 170.343 25.0869 181.323C32.0869 193.123 39.2671 204.253 49.4868 213.703C58.3066 221.853 73.5869 231.303 79.0566 233.123C80.5767 233.633 94.4766 239.303 106.057 239.583C115.987 240.053 132.277 234.633 149.757 226.163C166.037 218.273 202.687 192.763 205.077 190.723C220.417 177.643 232.967 167.003 242.507 156.723C255.687 142.563 261.767 130.373 262.857 112.303" transform="translate(126.104004 0)" id="Shape" fill="#FFDB00" fill-rule="evenodd" stroke="none" />
      </g>
      <g fill="#152972" stroke="none" id="Білки" transform="translate(929.77014 94.393555)">
        <path d="M31.32 12.7039L37.72 12.7039L37.72 7.30391L31.32 7.30391L31.32 12.7039ZM9.52 14.0639L24.84 14.0639L24.84 8.5039L3.36 8.5039L3.36 36.5039L16.32 36.5039C22.8 36.5039 26.76 33.3439 26.76 27.6239C26.76 22.3839 23.24 18.9439 16.92 18.9439L9.52 18.9439L9.52 14.0639ZM31.48 36.5039L37.56 36.5039L37.56 15.0639L31.48 15.0639L31.48 36.5039ZM42.36 31.5839C44.64 31.5839 45.84 30.2639 45.84 15.0639L63.08 15.0639L63.08 36.5039L57 36.5039L57 20.2639L51.56 20.2639C51.56 34.4639 49.12 36.7439 43.76 36.7439C42.96 36.7439 41.48 36.5839 40.68 36.3839L41.08 31.4639C41.32 31.5039 42.08 31.5839 42.36 31.5839ZM68.52 36.5039L74.6 36.5039L74.6 31.3439L77.36 28.3439L83.08 36.5039L90.28 36.5039L81.4 23.8639L89.28 15.0639L82.28 15.0639L74.6 23.8639L74.6 15.0639L68.52 15.0639L68.52 36.5039ZM107.2 15.0639L112.92 15.0639L112.92 36.5039L107.04 36.5039L107.04 24.0239L98.68 36.5039L92.96 36.5039L92.96 15.0639L98.84 15.0639L98.84 27.5839L107.2 15.0639ZM16.28 24.0639C19.2 24.0639 20.6 25.2239 20.6 27.3839C20.6 29.8239 19.2 30.9439 16.32 30.9439L9.52 30.9439L9.52 24.0639L16.28 24.0639Z" />
      </g>
    </g>
  </g>
</svg>