<svg width="62" height="56" viewBox="0 0 62 56" fill="none" xmlns="http://www.w3.org/2000/svg">
<mask id="mask0_191_43" style="mask-type:luminance" maskUnits="userSpaceOnUse" x="0" y="0" width="62" height="56">
<path d="M0 0H62V56H0V0Z" fill="white"/>
</mask>
<g mask="url(#mask0_191_43)">
<path fill-rule="evenodd" clip-rule="evenodd" d="M46.6432 46.8527L44.9866 43.9958C46.6944 42.6538 48.1511 41.0597 49.368 39.3661L53.7289 40.1236L55.4068 40.415L55.9621 38.9556L58.3718 32.6238L59.0374 30.8746L57.0759 30.343L54.2649 29.5815C54.4117 27.6713 54.2444 25.6999 53.7728 23.7287L56.4769 22.5719L58.2938 21.7945L57.3946 20.1702L54.5468 15.0256L53.6849 13.4689L51.9437 14.214L49.1924 15.3911C47.6541 13.744 45.9519 12.3737 44.0031 11.3108L44.6504 7.80238L44.9244 6.31808L43.3487 5.82891L36.3385 3.65235L34.5672 3.10229L33.8714 4.67332L32.6739 7.37736C30.3891 7.21931 28.107 7.36343 25.8334 7.8064L24.5525 5.364L23.7183 3.77329L21.9489 4.51089L16.2531 6.88532L14.4481 7.63777L15.2992 9.2605L16.6071 11.7545C14.7777 13.1832 13.2809 14.8081 12.1232 16.56L8.75137 15.8679L7.02823 15.5142L6.45382 17.0235L4.04405 23.3553L3.43506 24.9555L5.17441 25.5839L8.16894 26.6658C8.00101 28.6864 8.16736 30.7205 8.75793 32.6942L5.71638 34.0025L3.90482 34.7818L4.80214 36.4027L7.65006 41.5473L8.51351 43.107L10.2567 42.3572L13.4986 40.9628C14.9852 42.4501 16.6313 43.7617 18.5128 44.8016L17.5832 48.0204L17.1227 49.6146L18.8478 50.1504L25.8581 52.3268L27.8204 52.936L28.3904 51.1341L29.2383 48.4538C31.3233 48.6591 33.6381 48.7135 35.9452 48.338L37.4434 51.045L38.3238 52.6349L40.0841 51.8399L45.7799 49.2678L47.5739 48.4576L46.6432 46.8527ZM26.5179 29.6866C25.4434 27.3872 26.3897 24.9062 28.8664 23.7632C31.5069 22.7442 34.3975 23.7038 35.4288 25.8331C36.5544 28.1566 35.6055 30.6806 33.0902 31.8299C30.853 32.7577 27.8349 31.8403 26.5179 29.6866Z" stroke="#00AAFF" stroke-width="4"/>
</g>
</svg>
