<svg width="51" height="53" viewBox="0 0 51 53" fill="none" xmlns="http://www.w3.org/2000/svg">
<mask id="mask0_178_79" style="mask-type:luminance" maskUnits="userSpaceOnUse" x="0" y="0" width="51" height="53">
<path d="M0 0H50.7139V52.7119H0V0Z" fill="white"/>
</mask>
<g mask="url(#mask0_178_79)">
<path fill-rule="evenodd" clip-rule="evenodd" d="M17.5806 40.2185V50.6845H33.1328V40.2185C33.1328 35.8834 29.6514 32.369 25.3567 32.369C21.0621 32.369 17.5806 35.8834 17.5806 40.2185Z" stroke="#00AAFF" stroke-width="4" stroke-linecap="round" stroke-linejoin="round"/>
<path fill-rule="evenodd" clip-rule="evenodd" d="M22.7646 50.6845H27.9488C35.2071 50.6845 38.8363 50.6845 41.6086 49.2587C44.0472 48.0043 46.0299 46.0031 47.2725 43.5413C48.685 40.7428 48.685 37.0795 48.685 29.7525V27.8726C48.685 23.7769 48.685 21.7289 48.1256 19.8701C47.6306 18.2245 46.819 16.6935 45.737 15.3649C44.5152 13.864 42.8271 12.7281 39.4511 10.4562L29.9576 4.06745C28.2948 2.94844 27.4633 2.38892 26.5648 2.17154C25.7706 1.97944 24.9427 1.97944 24.1486 2.17154C23.2499 2.38892 22.4185 2.94844 20.7557 4.06745L11.2622 10.4562C7.88618 12.7281 6.19819 13.864 4.97617 15.3649C3.89433 16.6935 3.08266 18.2245 2.58756 19.8701C2.02832 21.7289 2.02832 23.7769 2.02832 27.8726V29.7525C2.02832 37.0795 2.02832 40.7428 3.4409 43.5413C4.68342 46.0031 6.6661 48.0043 9.10471 49.2587C11.877 50.6845 15.5062 50.6845 22.7646 50.6845Z" stroke="#00AAFF" stroke-width="4" stroke-linecap="round" stroke-linejoin="round"/>
</g>
</svg>
