<?xml version="1.0" encoding="utf-8"?>
<svg width="24px" height="57px" viewBox="0 0 24 57" version="1.1" xmlns:xlink="http://www.w3.org/1999/xlink" xmlns="http://www.w3.org/2000/svg">
  <g id="Group-29">
    <g id="Group-28">
      <g id="Mask-group-4" transform="translate(0 18.429613)">
        <path d="M11.6219 31.3042C11.9252 32.6892 12.7429 33.7374 13.9429 34.2614C12.0044 34.9727 10.1053 34.798 8.5624 33.7748C7.01945 32.7391 6.13588 31.0047 6.25457 29.2454C6.32051 28.2846 6.51832 27.3113 6.72932 26.2757C6.82164 25.8389 6.91395 25.4022 6.99307 24.9655C7.71839 21.01 8.44371 17.0421 9.19541 13.0866C9.28772 12.625 9.39322 12.1633 9.49872 11.7016C9.6306 11.1151 9.77566 10.5162 9.86797 9.91728C9.97347 9.33082 9.9471 8.68198 9.80203 7.98322C9.56466 6.84774 8.89209 5.89943 7.88983 5.31298C7.52058 5.10085 7.13813 4.93864 6.72932 4.8513C7.5997 4.23989 8.50965 3.77821 9.61741 3.57856C10.646 3.3914 11.3977 3.616 12.0967 4.32723C13.2044 5.45023 13.7979 6.8727 13.9693 8.76932C14.1803 11.1151 13.7847 13.461 13.3759 15.9316L13.2967 16.4057C13.1121 17.5412 12.9143 18.6767 12.7165 19.8246C12.2813 22.3701 11.8329 25.0029 11.4505 27.6108C11.279 28.7338 11.345 30.0065 11.6219 31.3042M22.7391 27.8988L21.8555 27.2001C21.4335 26.8757 20.8928 26.7384 20.3521 26.8257C19.8115 26.9131 19.3499 27.225 19.073 27.6742L18.8356 28.061C18.7301 28.2482 18.6378 28.3979 18.5323 28.5477C17.7806 29.6832 17.0552 30.3944 16.1981 30.8685C15.8024 31.0931 15.5651 31.0807 15.5123 31.0557C15.4595 31.0308 15.3409 30.881 15.2749 30.5816C15.0771 29.6832 15.0244 28.8222 15.143 28.0985C15.5255 25.5281 15.9739 22.9077 16.3959 20.3872C16.5937 19.2392 16.7915 18.1038 16.9761 16.9558L17.0552 16.4817C17.4904 13.9112 17.9388 11.241 17.6883 8.47092C17.4509 5.78819 16.5146 3.64201 14.8265 1.93256C13.2572 0.335405 11.2131 -0.288484 8.9185 0.123281C5.76666 0.69726 3.70939 2.56893 1.8895 4.22847C1.4675 4.60281 1.05868 4.98962 0.623491 5.35147C-0.115015 5.96288 -0.207328 7.02349 0.399303 7.74721L1.12462 8.62065C1.63894 9.24454 2.53569 9.46914 3.31376 9.1572C3.64345 9.03242 3.94677 8.89516 4.2369 8.77038C4.73803 8.55826 5.17322 8.37109 5.56884 8.25879C5.7271 8.22136 5.85897 8.23384 5.95128 8.28375C6.06997 8.34614 6.1491 8.47092 6.17548 8.63313C6.2546 9.00746 6.24141 9.23206 6.21504 9.31941C6.12272 9.85595 6.00403 10.3925 5.87216 10.929C5.75347 11.4282 5.64797 11.9273 5.54247 12.4389C4.80396 16.4068 4.06546 20.3622 3.34014 24.3302C3.26101 24.7419 3.18189 25.1537 3.08958 25.5655C2.86539 26.6635 2.62801 27.799 2.54888 28.9844C2.35107 31.9541 3.82808 34.8739 6.41285 36.6083C7.96899 37.644 9.7625 38.168 11.622 38.168C12.9539 38.168 14.3122 37.906 15.6442 37.3695C19.4026 35.8597 21.4203 32.9523 23.1611 30.1074C23.6095 29.3962 23.4249 28.4479 22.7391 27.8988" id="Shape" fill="#00AAFF" fill-rule="evenodd" stroke="none" />
      </g>
      <g id="Mask-group-5" transform="translate(2.040038 0)">
        <path d="M3.95627 7.80993C3.95627 6.69941 4.40465 5.66375 5.22228 4.90261C6.02673 4.15394 7.08174 3.74217 8.21587 3.74217L8.22906 3.74217C10.6028 3.75465 12.5414 5.58888 12.5546 7.83488C12.5546 8.89549 12.1062 9.90619 11.3018 10.6673C10.471 11.4534 9.38957 11.8777 8.22906 11.8777L8.22906 11.8777C7.06855 11.8777 6.00036 11.4659 5.19591 10.7048C4.39146 9.94363 3.94308 8.92045 3.95627 7.80993L3.95627 7.80993L3.95627 7.80993ZM8.21588 15.6097L8.21588 15.6097C10.4314 15.6097 12.515 14.7862 14.0844 13.3013C15.6405 11.8289 16.4977 9.8824 16.4845 7.82357C16.4713 3.53121 12.7788 0.0249552 8.22907 0C8.21588 0 8.20269 0 8.20269 0C6.01355 0 3.96947 0.798577 2.42652 2.246C0.857194 3.71838 0 5.68987 0 7.79862C0 9.90736 0.844006 11.8664 2.38696 13.3388C3.9431 14.8111 6.01355 15.6097 8.21588 15.6097" id="Shape" fill="#00AAFF" fill-rule="evenodd" stroke="none" />
      </g>
    </g>
  </g>
</svg>